<svg xmlns="http://www.w3.org/2000/svg" xmlns:xlink="http://www.w3.org/1999/xlink" width="483.148" height="578.043" viewBox="0 0 483.148 578.043">
  <defs>
    <linearGradient id="linear-gradient" x1="0.475" y1="0.169" x2="0.541" y2="0.973" gradientUnits="objectBoundingBox">
      <stop offset="0.02" stop-color="#fff" stop-opacity="0"/>
      <stop offset="0.39" stop-color="#fff" stop-opacity="0.388"/>
      <stop offset="1" stop-color="#fff"/>
    </linearGradient>
    <linearGradient id="linear-gradient-2" x1="0.551" y1="-3.306" x2="0.48" y2="2.002" gradientUnits="objectBoundingBox">
      <stop offset="0.01"/>
      <stop offset="0.83" stop-opacity="0.071"/>
      <stop offset="1" stop-opacity="0"/>
    </linearGradient>
    <linearGradient id="linear-gradient-3" x1="0.345" y1="-0.221" x2="0.696" y2="1.713" xlink:href="#linear-gradient-2"/>
    <linearGradient id="linear-gradient-4" x1="0.885" y1="1.732" x2="0.398" y2="0.014" xlink:href="#linear-gradient-2"/>
    <linearGradient id="linear-gradient-5" x1="6.003" y1="0.55" x2="-1.173" y2="0.487" xlink:href="#linear-gradient-2"/>
    <linearGradient id="linear-gradient-6" x1="1.711" y1="-0.078" x2="0.187" y2="0.619" xlink:href="#linear-gradient-2"/>
    <linearGradient id="linear-gradient-7" x1="0.529" y1="-1.269" x2="0.463" y2="2.001" xlink:href="#linear-gradient-2"/>
    <linearGradient id="linear-gradient-8" x1="0.406" y1="-0.629" x2="0.537" y2="0.97" xlink:href="#linear-gradient-2"/>
    <linearGradient id="linear-gradient-9" x1="0.336" y1="-0.281" x2="0.534" y2="0.984" xlink:href="#linear-gradient"/>
    <linearGradient id="linear-gradient-10" x1="0.303" y1="-0.333" x2="0.541" y2="1.016" xlink:href="#linear-gradient"/>
    <linearGradient id="linear-gradient-11" x1="0.384" y1="-2.2" x2="0.688" y2="4.746" xlink:href="#linear-gradient-2"/>
    <linearGradient id="linear-gradient-12" x1="0.381" y1="-2.3" x2="0.684" y2="4.672" xlink:href="#linear-gradient-2"/>
    <linearGradient id="linear-gradient-13" x1="0.503" y1="1.278" x2="0.497" y2="-0.407" xlink:href="#linear-gradient-2"/>
  </defs>
  <g id="Chef_Monochromatic" transform="translate(0.002 -0.003)">
    <path id="Path_697" data-name="Path 697" d="M181.115,568.35c35.926,14.5,75.868,12.844,114.5,10.952,48.123-2.34,100.228-6.339,136.071-39.2,32.441-29.736,43.642-75.984,57.216-118.348,25.007-78.241,63.97-157.212,51.076-238.439-8.3-51.74-38.166-98.867-78.855-130.562S369.291,4.436,318.165,2.627c-21.738-.763-44.289,1.261-63.406,11.9-13.408,7.467-24.36,18.751-34.847,30.168A823.807,823.807,0,0,0,109.081,198.652C85.434,241,65.173,286.6,60.195,335.072,52.113,413.213,104.849,537.668,181.115,568.35Z" transform="translate(-59.38 -2.48)" fill="#56dc1e" opacity="0.18"/>
    <path id="Path_698" data-name="Path 698" d="M239.264,129.69c0-11.3,3.6-22.618,1.56-33.719-2.19-12-10.786-23.232-8.181-35.2,1.659-7.434,7.318-13.275,12.777-18.519L255.925,32a13.556,13.556,0,0,1,4.016-3.07,13.79,13.79,0,0,1,5.144-.763q16.362-.3,32.707.332c9.027.332,19.2,1.46,24.775,8.562,4.978,6.438,4.464,15.565,2.7,23.547s-4.464,16.113-2.871,24.128c2.024,10.172,10.836,19.6,7.766,29.5-1.327,4.331-4.779,7.716-6.405,11.948-1.344,3.485-1.527,7.617-4.182,10.238a14.32,14.32,0,0,1-6.638,3.053c-17.424,4.613-34.847,10.421-52.338,14.57C246.217,157.485,239.215,142.534,239.264,129.69Z" transform="translate(54.55 14.393)" fill="url(#linear-gradient)"/>
    <ellipse id="Ellipse_101" data-name="Ellipse 101" cx="121.369" cy="22.004" rx="121.369" ry="22.004" transform="translate(115.363 502.614)" fill="url(#linear-gradient-2)"/>
    <path id="Path_699" data-name="Path 699" d="M200.818,302.59s2.622,17.175,1.211,19.133-9.658,1.294-14.735.182-6.306-7.7-6.306-7.7l-.348-5.41Z" transform="translate(20.58 195.411)" fill="#f7af81"/>
    <path id="Path_700" data-name="Path 700" d="M241.025,299s3.319,21.008,2.19,22.833-8.911,1.543-13.441,1-5.111-12.031-5.111-12.031l-.763-4.7Z" transform="translate(49.106 193.043)" fill="#f7af81"/>
    <path id="Path_701" data-name="Path 701" d="M193.839,57.409a13.474,13.474,0,0,0,1.394,2.473c1.742,3.07.9,7.252,3.053,10.056.531-2.257,4.978-18.121,2.871-19.149-.5-.249-3.12,1.941-3.734,2.224C195.531,53.825,192.893,54.472,193.839,57.409Z" transform="translate(29.153 29.359)" fill="#7d3b3d"/>
    <path id="Path_702" data-name="Path 702" d="M261.9,177.214l4.314,88.048,8.3,122s-4.762,5.708-18.469,5.891L231.387,268.995l-11.616-63.057-9.956,61.547L205.65,395.69s-9.674.2-22.253,1.328L175.25,270.6l8.065-97.9Z" transform="translate(17.026 109.761)" fill="#68f5fc"/>
    <path id="Path_703" data-name="Path 703" d="M261.9,177.214l4.314,88.048,8.3,122s-4.762,5.708-18.469,5.891L231.387,268.995l-11.616-63.057-9.956,61.547L205.65,395.69s-9.674.2-22.253,1.328L175.25,270.6l8.065-97.9Z" transform="translate(17.026 109.761)" fill="url(#linear-gradient-3)"/>
    <path id="Path_704" data-name="Path 704" d="M209.223,89.525l-7.55,41.734h0c-.68.448-22.319,15.134-24.891,18.519s-13.541,7.932-17.291,8.6-12.1-6.472-10.753-17.357,44.8-46.961,49.351-49.533S209.223,89.525,209.223,89.525Z" transform="translate(-0.552 54.874)" fill="#fff"/>
    <path id="Path_705" data-name="Path 705" d="M204.344,102.46l-2.672,20.228h0c-.68.448-22.319,15.134-24.891,18.519s-13.541,7.932-17.291,8.6-12.1-6.472-10.753-17.357l23.232-3.319Z" transform="translate(-0.552 63.445)" fill="url(#linear-gradient-4)"/>
    <path id="Path_706" data-name="Path 706" d="M277.788,284.718c0,.664-.647,1.245-1.659,1.742-7.119,3.418-35.262,2.771-52.636,1.012-1.659-.166-2.157-24.078-2.157-24.078s-6.107,23.049-7.5,22.767c-15.034-2.854-40.705-5.808-40.705-5.808a388.8,388.8,0,0,0,11.151-75.1c2.207-50.728-2.987-109.354-1.344-110.682,2.97-2.39,31.711-11.317,31.711-11.317l29.869,2.589,3.667,1.659c6.306,2.788,18.718,8.3,20.61,9.956.1,0,.166.365.232.846.2,1.493.3,4.862.348,9.691.116,11.284,0,30.516.1,52.5v7.069c.133,15.8.448,32.707,1.079,48.9C271.748,246.668,277.954,282.444,277.788,284.718Z" transform="translate(15.628 50.778)" fill="#fff"/>
    <path id="Path_707" data-name="Path 707" d="M246.018,262.971c0,.664-.647,1.245-1.659,1.742a225.679,225.679,0,0,1-22.568,1.659l3.883-21.8L221.31,131.729l11.151-15.5,5.177,22.535c0,17.772.365,37.353,1.112,55.972C239.978,224.921,246.184,260.7,246.018,262.971Z" transform="translate(47.398 72.525)" fill="url(#linear-gradient-5)"/>
    <path id="Path_708" data-name="Path 708" d="M259.546,171.992c-2.8,4.148-8.828,5.277-13.441,3.319a18.253,18.253,0,0,1-9.558-11.018,16.015,16.015,0,0,0-1.328-2.755c-2.307-3.949-6.007-8.114-6.173-12.147-.448-9.575-4-19.133-4.016-28.724,0-7.384,4.978-15.349,7.65-22.933a32.046,32.046,0,0,0,1.477-5.476,2.273,2.273,0,0,1,.581,0c3.651.465,8.131,8.679,9.508,11.4a60.517,60.517,0,0,1,4.978,15.233c2.124,10.6,4.148,15.665,8.3,25.621C259,148,259.5,157.339,260.508,160.99A13.275,13.275,0,0,1,259.546,171.992Z" transform="translate(49.851 56.705)" fill="#fff"/>
    <path id="Path_709" data-name="Path 709" d="M263.245,148.821l-7.882,9.956s-5.078-14.553-6.5-21.456c-1.294-6.107-5.426-23.58-8.131-31.064a22.215,22.215,0,0,0-.962-2.373,8.3,8.3,0,0,0-1.444-1.859C232.911,96.6,216.5,88.269,216.5,88.269l3.037-2.489c6.306,2.788,18.718,8.3,20.61,9.956.1,0,.166.365.232.846,3.651.465,8.131,8.679,9.508,11.4a60.518,60.518,0,0,1,4.978,15.233C256.989,133.8,259.014,138.864,263.245,148.821Z" transform="translate(44.226 52.446)" fill="url(#linear-gradient-6)"/>
    <path id="Path_710" data-name="Path 710" d="M228.088,72.262s-1.908,13.906-.382,19.05-5.542,20.56-16.013,21.572-12.08-16.859-12.28-18.95,2.871-3.435,1.344-8.579S226.478,66.072,228.088,72.262Z" transform="translate(32.953 42.517)" fill="#f7af81"/>
    <path id="Path_711" data-name="Path 711" d="M200.391,85.29a27.7,27.7,0,0,1-.431,12.728c2.771,2.107,5.327,5.725,8.3,5.443,6.273-.564,15.233-14.586,18.569-24.377a2.3,2.3,0,0,1,.166-.548c.3-3.518.664-6.273.664-6.273C226.112,66.074,198.881,80.146,200.391,85.29Z" transform="translate(33.32 42.515)" fill="#f69771"/>
    <path id="Path_712" data-name="Path 712" d="M241.79,131.48" transform="translate(60.903 82.581)" fill="none" stroke="#000" stroke-miterlimit="10" stroke-width="0.55"/>
    <path id="Path_713" data-name="Path 713" d="M196.543,58.688s-2.373,27.33-.348,34.7,8.3,13.756,14.586,13.823,15.831-5.094,20.129-14.52S237.547,60.165,236.535,57,229.267,43.82,212.457,45.18C200.891,46.109,196.593,54.489,196.543,58.688Z" transform="translate(30.298 25.591)" fill="#f7af81"/>
    <path id="Path_714" data-name="Path 714" d="M217.79,64.62s.481-6.389,4.862-4.663.183,13.707-1.825,14.935a5.924,5.924,0,0,1-3.037,1.178" transform="translate(45.077 35.224)" fill="#f7af81"/>
    <path id="Path_715" data-name="Path 715" d="M167.859,157.046s9.741-2.638,6.339-17.357S158.5,81.61,158.5,81.61l-11.135,8.944s-3.866,59.523,4.265,64.717A18.519,18.519,0,0,0,167.859,157.046Z" transform="translate(-1.967 49.696)" fill="#f7af81"/>
    <path id="Path_716" data-name="Path 716" d="M161.429,91.43s1.659-7.7.863-9.757S153.365,64.863,150.162,67s-7.783,16.362-8.148,17.324,8.28,16,8.28,16Z" transform="translate(-4.897 39.926)" fill="#f7af81"/>
    <path id="Path_717" data-name="Path 717" d="M256.168,163.4l27.662-37.652-.813-22.7-45.965,47.326a11.616,11.616,0,0,0,3.169,18.253l3.418.348a13.707,13.707,0,0,0,12.528-5.576Z" transform="translate(55.717 63.834)" fill="#f7af81"/>
    <path id="Path_718" data-name="Path 718" d="M266.029,130.567a44.615,44.615,0,0,0,7.567-2.273c2.024-1.079,8.463-24.061,6.638-25.588s-9.392-5.841-11.5-4.447-13.474,12.313-13.474,12.313S258.479,132.857,266.029,130.567Z" transform="translate(69.785 60.494)" fill="#f7af81"/>
    <path id="Path_719" data-name="Path 719" d="M198.16,84.074l2.8-2.074s3.319,16.843,9.326,18.535c0,0,9.575,3.75,17.805-18.253l3.153,6.355s-5.824,13.806-8.961,15.266-12.213,10.255-20.361-1.46C198.061,96.818,198.16,84.074,198.16,84.074Z" transform="translate(32.133 49.953)" fill="#68f5fc"/>
    <path id="Path_720" data-name="Path 720" d="M198.16,84.074l2.8-2.074s3.319,16.843,9.326,18.535c0,0,9.575,3.75,17.805-18.253l3.153,6.355s-5.824,13.806-8.961,15.266-12.213,10.255-20.361-1.46C198.061,96.818,198.16,84.074,198.16,84.074Z" transform="translate(32.133 49.953)" fill="url(#linear-gradient-7)"/>
    <path id="Path_721" data-name="Path 721" d="M160.97,73.915a20.643,20.643,0,0,0,3.966-4.812,1.211,1.211,0,0,0,.133-.913,1.062,1.062,0,0,0-.448-.448,4.7,4.7,0,0,0-4.63,0,7.285,7.285,0,0,0-3.12,3.6,5.559,5.559,0,0,1-.962,1.776,4.348,4.348,0,0,1-3.866.647,1.56,1.56,0,0,0-1,0c-.514.266-.581.962-.531,1.543.149,1.809,2.439,7.965,5.094,7.5,1.1-.2,1.659-3.319,2.107-4.2a20.926,20.926,0,0,1,3.252-4.7Z" transform="translate(0.707 40.15)" fill="#f7af81"/>
    <path id="Path_722" data-name="Path 722" d="M199.468,68.819s23.232-7.9,40.971,11l1.908-25.173a31,31,0,0,0,8.479-2.058c5.327-1.941,8.3-13.557,1.444-15.5a14.271,14.271,0,0,0-12.114,2.423S245.981,27.4,230.35,27.4c0,0-7.633,1.444-9.077,6.538,0,0-5.094-10.537-13.806-6.538s-7.633,8.712-7.633,8.712-6.19-2.539-8,.73-2.605,8.413,3.319,9.094c9.442,1.079,7.517,3.02,7.517,3.02Z" transform="translate(27.091 13.353)" fill="#fff"/>
    <path id="Path_723" data-name="Path 723" d="M216.65,73.222a43.709,43.709,0,0,0,5.559-10.62,4.464,4.464,0,0,0,2.307,1.941,2.323,2.323,0,0,0,2.688-.913,2.29,2.29,0,0,0-.431-2.572,4.182,4.182,0,0,0-2.439-1.211,1.294,1.294,0,0,1-.714-.282c-.431-.465,0-1.278-.249-1.809a1.427,1.427,0,0,0-.78-.465c-1.51-.5-3.866-1.659-5.327-1.991-.763,2.439.913,5.974.73,8.645A64.723,64.723,0,0,1,216.65,73.222Z" transform="translate(44.325 32.348)" fill="#7d3b3d"/>
    <path id="Path_724" data-name="Path 724" d="M220.52,78.539a8.3,8.3,0,0,1-.448,2.091,8.579,8.579,0,0,1-3,3.319,1.444,1.444,0,0,1-.614.315.946.946,0,0,1-.929-.83,2.539,2.539,0,0,1,.232-1.344l3.219-9.127a12.873,12.873,0,0,0,.6-2.074,3.136,3.136,0,0,1,.232-.962c.232-.448,1.045-1.1,1.659-.8s.1,1.991,0,2.555Z" transform="translate(43.575 41.417)" fill="#7d3b3d"/>
    <path id="Path_725" data-name="Path 725" d="M175.02,117.544l99.9-23.132L258.239,93.3l-72.333,17.274Z" transform="translate(115.41 61.52)" fill="#68f5fc"/>
    <path id="Path_726" data-name="Path 726" d="M175.02,117.544l99.9-23.132L258.239,93.3l-72.333,17.274Z" transform="translate(115.41 61.52)" fill="url(#linear-gradient-8)"/>
    <path id="Path_727" data-name="Path 727" d="M241.359,123.535s-7.932-35.528,23.232-42.3c38.515-8.3,48.969,25.024,48.969,25.024Z" transform="translate(60.023 48.576)" fill="#68f5fc"/>
    <path id="Path_728" data-name="Path 728" d="M313.625,106.267l-72.267,17.274s-7.932-35.528,23.232-42.3c1.842-.4,3.617-.7,5.327-.913,31.529-4.016,42,21.356,43.46,25.389Z" transform="translate(60.023 48.57)" fill="url(#linear-gradient-9)"/>
    <path id="Path_729" data-name="Path 729" d="M307.953,105.72l-58.311,13.939S243.3,91.1,264.576,80.331C295.955,76.315,306.492,101.638,307.953,105.72Z" transform="translate(65.497 48.569)" fill="url(#linear-gradient-10)"/>
    <circle id="Ellipse_102" data-name="Ellipse 102" cx="3.385" cy="3.385" r="3.385" transform="translate(320.083 123.507)" fill="#68f5fc"/>
    <path id="Path_730" data-name="Path 730" d="M169.411,315.811c-2.887,1.1-5.941,2.788-5.941,6.488a6.637,6.637,0,0,0,1.427,4.032c3.535,4.746,10.073,4.978,15.814,4.746a192.5,192.5,0,0,0,31.844-4.314,4.347,4.347,0,0,0,1.975-.813,4.016,4.016,0,0,0,1-2.224,32.06,32.06,0,0,0,.332-10.969,1.925,1.925,0,0,0-3.1-1.245,10.736,10.736,0,0,1-7.418,2.423c-6.389-.415-8.828-6.007-15.349-4.1C183.2,311.812,175.965,313.289,169.411,315.811Z" transform="translate(9.258 199.928)" fill="#68f5fc"/>
    <path id="Path_731" data-name="Path 731" d="M210.917,314.583c-2.887,1.1-5.941,2.788-5.957,6.472A6.8,6.8,0,0,0,206.4,325.1c3.518,4.746,10.073,4.978,15.814,4.729a192.5,192.5,0,0,0,31.844-4.314,4.182,4.182,0,0,0,1.975-.813,3.916,3.916,0,0,0,1-2.224,32.293,32.293,0,0,0,.315-11.085,1.859,1.859,0,0,0-3-1.195,10.72,10.72,0,0,1-7.5,2.589c-6.389-.431-8.845-6.007-15.349-4.115C224.707,310.583,217.538,312.06,210.917,314.583Z" transform="translate(36.617 199.166)" fill="#68f5fc"/>
    <path id="Path_732" data-name="Path 732" d="M169.411,315.811c-2.887,1.1-5.941,2.788-5.941,6.488a6.637,6.637,0,0,0,1.427,4.032c3.535,4.746,10.073,4.978,15.814,4.746a192.5,192.5,0,0,0,31.844-4.314,4.347,4.347,0,0,0,1.975-.813,4.016,4.016,0,0,0,1-2.224,32.06,32.06,0,0,0,.332-10.969,1.925,1.925,0,0,0-3.1-1.245,10.736,10.736,0,0,1-7.418,2.423c-6.389-.415-8.828-6.007-15.349-4.1C183.2,311.812,175.965,313.289,169.411,315.811Z" transform="translate(9.258 199.928)" fill="url(#linear-gradient-11)"/>
    <path id="Path_733" data-name="Path 733" d="M210.917,314.583c-2.887,1.1-5.941,2.788-5.957,6.472A6.8,6.8,0,0,0,206.4,325.1c3.518,4.746,10.073,4.978,15.814,4.729a192.5,192.5,0,0,0,31.844-4.314,4.182,4.182,0,0,0,1.975-.813,3.916,3.916,0,0,0,1-2.224,32.293,32.293,0,0,0,.315-11.085,1.859,1.859,0,0,0-3-1.195,10.72,10.72,0,0,1-7.5,2.589c-6.389-.431-8.845-6.007-15.349-4.115C224.707,310.583,217.538,312.06,210.917,314.583Z" transform="translate(36.617 199.166)" fill="url(#linear-gradient-12)"/>
    <circle id="Ellipse_103" data-name="Ellipse 103" cx="2.058" cy="2.058" r="2.058" transform="translate(232.865 171.713)" fill="#68f5fc"/>
    <circle id="Ellipse_104" data-name="Ellipse 104" cx="2.058" cy="2.058" r="2.058" transform="translate(228.866 198.728)" fill="#68f5fc"/>
    <circle id="Ellipse_105" data-name="Ellipse 105" cx="2.058" cy="2.058" r="2.058" transform="translate(228.136 231.186)" fill="#68f5fc"/>
    <circle id="Ellipse_106" data-name="Ellipse 106" cx="2.058" cy="2.058" r="2.058" transform="translate(229.347 257.952)" fill="#68f5fc"/>
    <circle id="Ellipse_107" data-name="Ellipse 107" cx="2.058" cy="2.058" r="2.058" transform="translate(229.828 297.927)" fill="#68f5fc"/>
    <path id="Path_734" data-name="Path 734" d="M265.138,162.865a15.133,15.133,0,0,1,7.218.979c2.207,1.112,3.85,3.75,2.954,6.04a13.375,13.375,0,0,1-2.356,3.153c-2.257,2.937-2.34,6.936-2.307,10.653l.8,108.906c0,3.717-.365,8.181-3.651,9.956a10.09,10.09,0,0,1-4.713.813q-41.9.531-83.783.879c-2.9,0-6.339-.232-7.816-2.738a8.3,8.3,0,0,1-.813-3.966A504.091,504.091,0,0,1,182.8,169.005a8.7,8.7,0,0,1,1.975-4.464c1.659-1.659,10.919.348,13.408.3,7.55-.133,15.084-.431,22.618-.647Z" transform="translate(13.809 103.218)" fill="#68f5fc"/>
    <path id="Path_735" data-name="Path 735" d="M265.138,162.865a15.133,15.133,0,0,1,7.218.979c2.207,1.112,3.85,3.75,2.954,6.04a13.375,13.375,0,0,1-2.356,3.153c-2.257,2.937-2.34,6.936-2.307,10.653l.8,108.906c0,3.717-.365,8.181-3.651,9.956a10.09,10.09,0,0,1-4.713.813q-41.9.531-83.783.879c-2.9,0-6.339-.232-7.816-2.738a8.3,8.3,0,0,1-.813-3.966A504.091,504.091,0,0,1,182.8,169.005a8.7,8.7,0,0,1,1.975-4.464c1.659-1.659,10.919.348,13.408.3,7.55-.133,15.084-.431,22.618-.647Z" transform="translate(13.809 103.218)" fill="url(#linear-gradient-13)"/>
  </g>
</svg>
