<svg xmlns="http://www.w3.org/2000/svg" xmlns:xlink="http://www.w3.org/1999/xlink" width="160.057" height="124.648" viewBox="0 0 160.057 124.648">
  <defs>
    <linearGradient id="linear-gradient" x1="1.415" y1="0.478" x2="0.117" y2="0.506" gradientUnits="objectBoundingBox">
      <stop offset="0.01"/>
      <stop offset="0.13" stop-opacity="0.69"/>
      <stop offset="1" stop-opacity="0"/>
    </linearGradient>
    <linearGradient id="linear-gradient-2" x1="2.298" y1="1.357" x2="-0.259" y2="0.133" xlink:href="#linear-gradient"/>
    <linearGradient id="linear-gradient-3" x1="6.426" y1="-4.379" x2="6.72" y2="-5.512" xlink:href="#linear-gradient"/>
    <linearGradient id="linear-gradient-4" x1="6.111" y1="-3.054" x2="7.078" y2="-4.77" xlink:href="#linear-gradient"/>
    <linearGradient id="linear-gradient-5" x1="57.062" y1="-7.517" x2="59.198" y2="-8.145" xlink:href="#linear-gradient"/>
    <linearGradient id="linear-gradient-6" x1="34.032" y1="-4.15" x2="32.063" y2="-5.06" xlink:href="#linear-gradient"/>
    <linearGradient id="linear-gradient-7" x1="64.783" y1="-9.079" x2="68.061" y2="-9.079" xlink:href="#linear-gradient"/>
    <linearGradient id="linear-gradient-8" x1="47.04" y1="-7.957" x2="50.094" y2="-7.957" xlink:href="#linear-gradient"/>
    <linearGradient id="linear-gradient-9" x1="30.031" y1="-10.208" x2="32.911" y2="-11.184" xlink:href="#linear-gradient"/>
    <linearGradient id="linear-gradient-10" x1="115.071" y1="-6.462" x2="121.372" y2="-6.462" xlink:href="#linear-gradient"/>
    <linearGradient id="linear-gradient-11" x1="-0.001" y1="0.5" x2="1" y2="0.5" xlink:href="#linear-gradient"/>
    <linearGradient id="linear-gradient-12" x1="1.45" y1="-5.785" x2="1.861" y2="-5.638" xlink:href="#linear-gradient"/>
    <linearGradient id="linear-gradient-13" x1="1.759" y1="-6.115" x2="2.733" y2="-6.115" xlink:href="#linear-gradient"/>
    <linearGradient id="linear-gradient-14" x1="1.426" y1="-8.375" x2="2.415" y2="-8.375" xlink:href="#linear-gradient"/>
    <linearGradient id="linear-gradient-15" x1="1.781" y1="-6.862" x2="1.724" y2="-4.823" gradientUnits="objectBoundingBox">
      <stop offset="0.01" stop-color="#fff"/>
      <stop offset="0.13" stop-color="#fff" stop-opacity="0.69"/>
      <stop offset="1" stop-color="#fff" stop-opacity="0"/>
    </linearGradient>
    <linearGradient id="linear-gradient-16" x1="4.265" y1="-8.842" x2="5.265" y2="-8.842" xlink:href="#linear-gradient"/>
    <linearGradient id="linear-gradient-17" x1="4.277" y1="-8.845" x2="5.277" y2="-8.845" xlink:href="#linear-gradient"/>
    <linearGradient id="linear-gradient-18" x1="4.258" y1="-9.267" x2="5.251" y2="-9.267" xlink:href="#linear-gradient"/>
    <linearGradient id="linear-gradient-19" x1="1.728" y1="-3.922" x2="1.799" y2="-5.982" xlink:href="#linear-gradient-15"/>
    <linearGradient id="linear-gradient-20" x1="2.106" y1="-3.036" x2="2.022" y2="-2.042" xlink:href="#linear-gradient"/>
    <linearGradient id="linear-gradient-21" x1="2.336" y1="-4.485" x2="2.14" y2="-2.202" xlink:href="#linear-gradient"/>
    <linearGradient id="linear-gradient-22" x1="31.423" y1="-29.763" x2="32.32" y2="-29.763" xlink:href="#linear-gradient-15"/>
    <linearGradient id="linear-gradient-23" x1="18.333" y1="-26.059" x2="19.375" y2="-26.059" xlink:href="#linear-gradient-15"/>
    <linearGradient id="linear-gradient-24" x1="18.288" y1="-50.053" x2="19.312" y2="-50.053" xlink:href="#linear-gradient-15"/>
    <linearGradient id="linear-gradient-25" x1="26.403" y1="-41.004" x2="27.458" y2="-41.004" xlink:href="#linear-gradient-15"/>
    <linearGradient id="linear-gradient-26" x1="91.499" y1="-20.985" x2="92.859" y2="-20.985" xlink:href="#linear-gradient-15"/>
    <linearGradient id="linear-gradient-27" x1="33.012" y1="-35.182" x2="33.924" y2="-35.182" xlink:href="#linear-gradient-15"/>
    <linearGradient id="linear-gradient-28" x1="39.871" y1="-31.059" x2="40.744" y2="-31.059" xlink:href="#linear-gradient-15"/>
    <linearGradient id="linear-gradient-29" x1="27.978" y1="-60.13" x2="28.991" y2="-60.13" xlink:href="#linear-gradient-15"/>
    <linearGradient id="linear-gradient-30" x1="21.366" y1="-43.719" x2="22.402" y2="-43.719" xlink:href="#linear-gradient-15"/>
    <linearGradient id="linear-gradient-31" x1="20.125" y1="-75.554" x2="21.1" y2="-75.554" xlink:href="#linear-gradient-15"/>
    <linearGradient id="linear-gradient-32" x1="30.656" y1="-39.882" x2="31.706" y2="-39.882" xlink:href="#linear-gradient-15"/>
    <linearGradient id="linear-gradient-33" x1="108.572" y1="-18.717" x2="109.749" y2="-18.717" xlink:href="#linear-gradient-15"/>
    <linearGradient id="linear-gradient-34" x1="4.392" y1="-17.569" x2="5.348" y2="-17.569" xlink:href="#linear-gradient-15"/>
    <linearGradient id="linear-gradient-35" x1="0.504" y1="5.664" x2="0.498" y2="-2.538" xlink:href="#linear-gradient"/>
    <linearGradient id="linear-gradient-36" x1="1.08" y1="0.997" x2="0.183" y2="0.272" xlink:href="#linear-gradient"/>
    <linearGradient id="linear-gradient-37" x1="0.661" y1="2.279" x2="0.44" y2="-0.202" xlink:href="#linear-gradient"/>
    <linearGradient id="linear-gradient-38" x1="0" y1="0.5" x2="1" y2="0.5" xlink:href="#linear-gradient"/>
  </defs>
  <g id="Fast_food_Monochromatic" data-name="Fast food_Monochromatic" transform="translate(-0.018 -0.03)">
    <path id="Path_526" data-name="Path 526" d="M190.733,112.17c.136,10.435-5.984,20-13.388,27.344a64.89,64.89,0,0,1-22.78,14.945c-15.5,5.771-32.82,3.09-49,6.393A58.7,58.7,0,0,1,96.1,162.04h-.023l-.907.027c-3.176.082-6.043-.086-9.283-.136l-7.109-.867h-.118l-.4-.05a.261.261,0,0,1-.113-.054h0q-2.758-1.216-5.417-2.636a85.235,85.235,0,0,1-34.313-33.619c-8.407-15.131-11.542-35.166-1.275-49.1,8.688-11.8,24.209-15.934,36.032-24.577,4.537-3.321,8.62-7.377,13.656-9.9,7.409-3.711,16.056-3.72,24.341-3.657,4.641.041,9.342.082,13.842,1.23,15.212,3.87,24.35,18.783,35.193,30.134,6.275,6.56,13.534,12.186,19.531,19.005S190.62,103.078,190.733,112.17Z" transform="translate(-30.66 -37.43)" fill="#68e1fd" opacity="0.18"/>
    <rect id="Rectangle_104" data-name="Rectangle 104" width="22.689" height="3.425" transform="translate(44.068 20.768)" fill="#68e1fd"/>
    <path id="Path_527" data-name="Path 527" d="M111.364,98.265H92.713L87.99,52.76h29.526Z" transform="translate(-48.06 -28.807)" fill="#68e1fd"/>
    <path id="Path_528" data-name="Path 528" d="M111.364,98.265H92.713L87.99,52.76h29.526Z" transform="translate(-48.06 -28.807)" fill="url(#linear-gradient)"/>
    <path id="Path_529" data-name="Path 529" d="M145.848,134.564v-17.15s3.276-11.909,7.2-14.473A10.009,10.009,0,0,0,157.34,96h5.322l-7.681,42.874-9.151-.3Z" transform="translate(-93.568 -69.411)" fill="url(#linear-gradient-2)"/>
    <path id="Path_530" data-name="Path 530" d="M221.991,104.007c.281-.649.454-1.361.753-2a11.444,11.444,0,0,1,4.138-4.591,27.131,27.131,0,0,1,16.855-5.177,17.013,17.013,0,0,1,7.5,1.9,11.342,11.342,0,0,1,5.295,5.962,12.8,12.8,0,0,1,.608,2.817,5.825,5.825,0,0,1-.122,2.432,6.079,6.079,0,0,1-.608,1.23l-5.494,9.292a12.686,12.686,0,0,1-3.552,4.383c-1.561,1.034-3.6,1.311-5.444,1.856s-3.548,1.361-5.444,1.216a14.988,14.988,0,0,1-4.678-1.6c-3.589-1.57-7.618-2.6-10.253-5.667-.966-1.121-1.706-2.436-2.559-3.63a3.116,3.116,0,0,1-.907-2.232c.177-1.121,1.234-2.155,1.869-2.99A15.189,15.189,0,0,0,221.991,104.007Z" transform="translate(-133.026 -67.35)" fill="#68e1fd"/>
    <path id="Path_531" data-name="Path 531" d="M221.991,104.007c.281-.649.454-1.361.753-2a11.444,11.444,0,0,1,4.138-4.591,27.131,27.131,0,0,1,16.855-5.177,17.013,17.013,0,0,1,7.5,1.9,11.342,11.342,0,0,1,5.295,5.962,12.8,12.8,0,0,1,.608,2.817,5.825,5.825,0,0,1-.122,2.432,6.079,6.079,0,0,1-.608,1.23l-5.494,9.292a12.686,12.686,0,0,1-3.552,4.383c-1.561,1.034-3.6,1.311-5.444,1.856s-3.548,1.361-5.444,1.216a14.988,14.988,0,0,1-4.678-1.6c-3.589-1.57-7.618-2.6-10.253-5.667-.966-1.121-1.706-2.436-2.559-3.63a3.116,3.116,0,0,1-.907-2.232c.177-1.121,1.234-2.155,1.869-2.99A15.189,15.189,0,0,0,221.991,104.007Z" transform="translate(-133.026 -67.35)" fill="url(#linear-gradient-3)"/>
    <path id="Path_532" data-name="Path 532" d="M224.492,84.333c.544,1.561,1.257,3.081,1.915,4.6a42.147,42.147,0,0,1,1.751,5.5c.154.8.1,1.22.83,1.683.867.544,1.924-.136,2.268,1.2.581,2.209,1.434,4.51,3.176,5.971a7.513,7.513,0,0,0,4.8,1.656,5.992,5.992,0,0,0,4.614-1.774,8.533,8.533,0,0,0,1.561-3.63,1.415,1.415,0,0,1,.354-.767,1.311,1.311,0,0,1,.717-.236l5.068-.617a3.748,3.748,0,0,0,1.5-.4,3.829,3.829,0,0,0,.857-.812l7.559-8.806a58.373,58.373,0,0,1-3.326-5.05l-6.474,9.641L255.942,80.3l-3.8-2.169-6.261,11.383,2.636-16.333a2.164,2.164,0,0,0-.091-1.406c-.662-1.2-2.45-.277-3.607-.935q-2.695,9.269-4.991,18.7l.685-10.725a1.647,1.647,0,0,0-.231-1.171c-.631-.749-1.815.159-2.631-.309l-1.67,11.583c-.286-5.5-.576-11.016-1.361-16.505a1.361,1.361,0,0,0-.458-1.043c-.508-.295-1.08.25-1.633.091a67.4,67.4,0,0,0,1.683,17.694,41.118,41.118,0,0,1-1.461-7.209,4.99,4.99,0,0,0-.454-1.883,1.482,1.482,0,0,0-1.547-.853c-.758.227-.88,1.27-.871,2.114l.068,9.777q-1.361-7.282-2.11-14.613l-3.58,2.872a1.674,1.674,0,0,0-.517.581,1.783,1.783,0,0,0-.073.907,15.735,15.735,0,0,0,.826,3.489Z" transform="translate(-136.075 -55.666)" fill="#68e1fd"/>
    <path id="Path_533" data-name="Path 533" d="M222.763,86.643c.544,1.561,1.257,3.081,1.915,4.6a42.143,42.143,0,0,1,1.751,5.5c.154.8.1,1.22.83,1.683.867.544,1.924-.141,2.268,1.2.576,2.209,1.434,4.51,3.176,5.971a7.5,7.5,0,0,0,4.8,1.642,6,6,0,0,0,4.614-1.774,8.589,8.589,0,0,0,1.561-3.63,1.42,1.42,0,0,1,.354-.762,1.284,1.284,0,0,1,.712-.236l5.068-.617a3.747,3.747,0,0,0,1.506-.4,3.83,3.83,0,0,0,.857-.812l7.536-8.811a57.346,57.346,0,0,1-3.326-5.05l-6.456,9.641,4.287-12.177-3.8-2.173-6.266,11.388,2.641-16.333a2.16,2.16,0,0,0-.1-1.406c-.658-1.2-2.445-.277-3.6-.935q-2.695,9.269-4.991,18.7l.681-10.725a1.6,1.6,0,0,0-.231-1.171c-.626-.749-1.815.159-2.627-.309l-1.67,11.583c-.286-5.5-.576-11.016-1.361-16.505a1.361,1.361,0,0,0-.485-1.039c-.508-.295-1.08.25-1.633.091a67.6,67.6,0,0,0,1.679,17.694,42.055,42.055,0,0,1-1.416-7.255,5.068,5.068,0,0,0-.454-1.883,1.482,1.482,0,0,0-1.547-.853c-.758.227-.88,1.27-.876,2.114l.068,9.773q-1.361-7.259-2.105-14.609l-3.575,2.913a1.642,1.642,0,0,0-.522.581,1.815,1.815,0,0,0-.068.907A15.734,15.734,0,0,0,222.763,86.643Z" transform="translate(-135.14 -56.928)" fill="url(#linear-gradient-4)"/>
    <path id="Path_534" data-name="Path 534" d="M231.138,89.863a1.134,1.134,0,0,1,.227-.907.975.975,0,0,1,.6-.172l1.229-.077a.662.662,0,0,1,.508.113.744.744,0,0,1,.172.454,27.485,27.485,0,0,1,.136,4.569,69.418,69.418,0,0,0,.34,7.318c.236,2.468.8,5.031.862,7.481-1.243-.227-2.831-.8-3.28-2.209a20.7,20.7,0,0,1-.318-4.909Z" transform="translate(-140.162 -65.42)" fill="#68e1fd"/>
    <path id="Path_535" data-name="Path 535" d="M232.978,89.765a1.139,1.139,0,0,1,.227-.907.984.984,0,0,1,.6-.172l1.234-.077a.658.658,0,0,1,.5.118.753.753,0,0,1,.177.454,27.466,27.466,0,0,1,.132,4.569,68.142,68.142,0,0,0,.345,7.314c.231,2.468.794,5.031.857,7.481-1.243-.227-2.831-.8-3.276-2.2a20.737,20.737,0,0,1-.322-4.913Z" transform="translate(-141.168 -65.367)" fill="url(#linear-gradient-5)"/>
    <path id="Path_536" data-name="Path 536" d="M216.74,131.321a40,40,0,0,1,10.7-2.051c-.485,4.26,3.289,8.847,7.422,9.019s7.554-4.12,6.724-8.434l10.594-.576c.935,2.69.635,5.553.327,8.294L250.6,154.3a2.69,2.69,0,0,1-.544,1.624,2.418,2.418,0,0,1-1.592.526,173.307,173.307,0,0,1-18.57.549,16.121,16.121,0,0,1-6.851-1.239C216.264,152.426,216.858,137.577,216.74,131.321Z" transform="translate(-132.307 -87.586)" fill="#68e1fd"/>
    <path id="Path_537" data-name="Path 537" d="M290.17,150.491a83.185,83.185,0,0,0,.522-19.454,60.816,60.816,0,0,1-.327-7.087,39.579,39.579,0,0,1,6.47-4.61q.318,9.106.367,18.193c0,2.554.558,5.3-.944,7.259a21.326,21.326,0,0,1-2.668,2.867C293.028,148.19,290.361,149.846,290.17,150.491Z" transform="translate(-172.422 -82.161)" fill="#68e1fd"/>
    <path id="Path_538" data-name="Path 538" d="M290.17,150.491a83.185,83.185,0,0,0,.522-19.454,60.816,60.816,0,0,1-.327-7.087,39.579,39.579,0,0,1,6.47-4.61q.318,9.106.367,18.193c0,2.554.558,5.3-.944,7.259a21.326,21.326,0,0,1-2.668,2.867C293.028,148.19,290.361,149.846,290.17,150.491Z" transform="translate(-172.422 -82.161)" fill="url(#linear-gradient-6)"/>
    <path id="Path_539" data-name="Path 539" d="M262.658,92.651a3.407,3.407,0,0,0-.34-1.252,3.189,3.189,0,0,0-2.482-1.193,1,1,0,0,0-.644.059c-.272.168-.318.563-.322.907a33.157,33.157,0,0,0,.386,4.814c.59,4.41,1.311,8.811,2.037,13.207a11.935,11.935,0,0,0,.907,3.385,17.432,17.432,0,0,0,1.978-3.63,6.524,6.524,0,0,0,.5-1.91c.159-2-.812-4.133-.939-6.17C263.566,98.136,263.012,95.364,262.658,92.651Z" transform="translate(-155.323 -66.23)" fill="#68e1fd"/>
    <path id="Path_540" data-name="Path 540" d="M273.6,91.166a1.062,1.062,0,0,0-.036-.73,1.084,1.084,0,0,0-.531-.395l-2.94-1.361c-1.13,7.187-2.436,15.067-2.023,22.5,1.057-.163,1.942-2.845,2.7-3.725a5.032,5.032,0,0,0,1.416-3.5A105.4,105.4,0,0,1,273.6,91.166Z" transform="translate(-160.304 -65.412)" fill="#68e1fd"/>
    <path id="Path_541" data-name="Path 541" d="M277.974,94.883a3.843,3.843,0,0,1,.268,1.361c.336,4.768.6,9.636-.59,14.119a.88.88,0,0,1-.186.4.794.794,0,0,1-.454.177,7.963,7.963,0,0,1-2.132.082c.059-2.187,1.048-4.16,1.248-6.324.073-.8.041-1.62.041-2.432a35.8,35.8,0,0,1,.313-4.424c.122-.975.091-3.348.744-4a3.307,3.307,0,0,1,.749,1.044Z" transform="translate(-164.069 -68.231)" fill="#68e1fd"/>
    <path id="Path_542" data-name="Path 542" d="M277.974,94.883a3.843,3.843,0,0,1,.268,1.361c.336,4.768.6,9.636-.59,14.119a.88.88,0,0,1-.186.4.794.794,0,0,1-.454.177,7.963,7.963,0,0,1-2.132.082c.059-2.187,1.048-4.16,1.248-6.324.073-.8.041-1.62.041-2.432a35.8,35.8,0,0,1,.313-4.424c.122-.975.091-3.348.744-4a3.307,3.307,0,0,1,.749,1.044Z" transform="translate(-164.069 -68.231)" fill="url(#linear-gradient-7)"/>
    <path id="Path_543" data-name="Path 543" d="M261.625,105.208l-1.656-.658c-.962,4.233-1.924,8.47-2.7,12.762a22.74,22.74,0,0,0-.485,6.352.962.962,0,0,0,.145.485.839.839,0,0,0,.422.259c4.015,1.311,3.63-4.8,3.865-7.345A99.281,99.281,0,0,0,261.625,105.208Z" transform="translate(-154.144 -74.082)" fill="#68e1fd"/>
    <path id="Path_544" data-name="Path 544" d="M261.625,105.208l-1.656-.658c-.962,4.233-1.924,8.47-2.7,12.762a22.74,22.74,0,0,0-.485,6.352.962.962,0,0,0,.145.485.839.839,0,0,0,.422.259c4.015,1.311,3.63-4.8,3.865-7.345A99.281,99.281,0,0,0,261.625,105.208Z" transform="translate(-154.144 -74.082)" fill="url(#linear-gradient-8)"/>
    <path id="Path_545" data-name="Path 545" d="M258.838,102.961l-3.407-.771c.454,6.873-2.268,13.416-1.606,20.289a.83.83,0,0,0,.154.476.69.69,0,0,0,.426.186c3.176.508,3.221-1.942,3.416-4.464q.395-4.991.7-10.013Q258.674,105.815,258.838,102.961Z" transform="translate(-152.509 -72.792)" fill="#68e1fd"/>
    <path id="Path_546" data-name="Path 546" d="M215.708,108.675c-1.815-3.3-3.38-6.9-3.371-10.571a.907.907,0,0,1,.073-.426.785.785,0,0,1,.318-.277L215,96.04a17.415,17.415,0,0,0,1.361,7.853,58.017,58.017,0,0,0,3.7,7.259c.077.132.15.295.077.413a.34.34,0,0,1-.286.118c-.73.059-2.073.454-2.749-.109S216.126,109.442,215.708,108.675Z" transform="translate(-129.9 -69.433)" fill="#68e1fd"/>
    <path id="Path_547" data-name="Path 547" d="M217.189,96.14a21.218,21.218,0,0,0,.34,4.963,19.141,19.141,0,0,0,1.856,4.6c1.021,1.942,2.141,3.829,3.258,5.721a.576.576,0,0,0,.218.236.454.454,0,0,0,.254,0l1.679-.29-1.3-2.346a56.714,56.714,0,0,1-3.344-6.76,22.122,22.122,0,0,1-1.071-3.584,3.361,3.361,0,0,0-.4-1.524A7.48,7.48,0,0,0,217.189,96.14Z" transform="translate(-132.538 -69.487)" fill="#68e1fd"/>
    <path id="Path_548" data-name="Path 548" d="M217.189,96.14a21.218,21.218,0,0,0,.34,4.963,19.141,19.141,0,0,0,1.856,4.6c1.021,1.942,2.141,3.829,3.258,5.721a.576.576,0,0,0,.218.236.454.454,0,0,0,.254,0l1.679-.29-1.3-2.346a56.714,56.714,0,0,1-3.344-6.76,22.122,22.122,0,0,1-1.071-3.584,3.361,3.361,0,0,0-.4-1.524A7.48,7.48,0,0,0,217.189,96.14Z" transform="translate(-132.538 -69.487)" fill="url(#linear-gradient-9)"/>
    <path id="Path_549" data-name="Path 549" d="M241.2,107.375q-.381-7.772-.721-15.544c1.166-.236,2.323-.526,3.457-.871a12.069,12.069,0,0,1,.3,3.516,180.529,180.529,0,0,0,1.1,21.7c0-.172-1.815-1.429-2.06-1.692a8.135,8.135,0,0,1-1.579-2.268C241.12,110.791,241.274,108.84,241.2,107.375Z" transform="translate(-145.276 -66.657)" fill="#68e1fd"/>
    <path id="Path_550" data-name="Path 550" d="M249.693,93.48a4.242,4.242,0,0,1,.231,1.234,117.281,117.281,0,0,1,.023,22.326c.145-1.388-.485-3.326-.649-4.755q-.286-2.477-.454-4.954-.363-4.954-.309-9.9c0-1.053-.4-4.451.377-5.086A2.631,2.631,0,0,1,249.693,93.48Z" transform="translate(-149.621 -67.417)" fill="#68e1fd"/>
    <path id="Path_551" data-name="Path 551" d="M249.693,93.48a4.242,4.242,0,0,1,.231,1.234,117.281,117.281,0,0,1,.023,22.326c.145-1.388-.485-3.326-.649-4.755q-.286-2.477-.454-4.954-.363-4.954-.309-9.9c0-1.053-.4-4.451.377-5.086A2.631,2.631,0,0,1,249.693,93.48Z" transform="translate(-149.621 -67.417)" fill="url(#linear-gradient-10)"/>
    <path id="Path_552" data-name="Path 552" d="M250.205,99.591a1.633,1.633,0,0,1,0-.612,1.461,1.461,0,0,1,.318-.5L251.816,97a29.419,29.419,0,0,1,1.325,3.539,6,6,0,0,1,.281,1.307,6.247,6.247,0,0,1-.145,1.57A52.9,52.9,0,0,1,251.8,110c.39-1.248-.576-3.63-.812-4.9Q250.482,102.349,250.205,99.591Z" transform="translate(-150.573 -69.957)" fill="#68e1fd"/>
    <ellipse id="Ellipse_85" data-name="Ellipse 85" cx="0.603" cy="0.667" rx="0.603" ry="0.667" transform="translate(96.415 58.511) rotate(-29.41)" fill="#68e1fd"/>
    <ellipse id="Ellipse_86" data-name="Ellipse 86" cx="0.603" cy="0.667" rx="0.603" ry="0.667" transform="translate(101.077 58.05) rotate(-29.41)" fill="#68e1fd"/>
    <path id="Path_553" data-name="Path 553" d="M227.849,116.121a10.889,10.889,0,0,1,6.243,6.964c.681,2.486.454,6.275,2.164,8.375,1.066,1.311,3.239,1.955,3.489,3.58.236,1.529-1.429,2.672-2.178,4.056a7.382,7.382,0,0,0-.658,2.917c-.113,1.316-.222,2.631-.336,3.947-.054.681.159,2.268-.454,2.8a1.234,1.234,0,0,1-.749.191l-16.859.554a122.608,122.608,0,0,1-2.586-17.907c-.386-4.414-.608-9.16,1.919-12.921a6.021,6.021,0,0,1,2.187-2.082c1.579-.8,3.512-.612,5.295-.363" transform="translate(-131.734 -80.344)" fill="url(#linear-gradient-11)"/>
    <path id="Path_554" data-name="Path 554" d="M157.069,170.183l35.533-.944a2.5,2.5,0,0,1,2.7,2.237v.454c.118,3.48-2.994,6.388-6.955,6.5l-26.423.685c-3.956.1-7.259-2.636-7.386-6.116v-.454A2.434,2.434,0,0,1,157.069,170.183Z" transform="translate(-98.324 -109.421)" fill="#68e1fd"/>
    <path id="Path_555" data-name="Path 555" d="M195.3,171.46v.454a6.374,6.374,0,0,1-4.573,6.07,8,8,0,0,1-2.382.426l-26.423.685c-3.956.109-7.259-2.631-7.386-6.111v-.454a2.455,2.455,0,0,1,2.545-2.373l7.495-.2,28.034-.744A2.518,2.518,0,0,1,195.3,171.46Z" transform="translate(-98.325 -109.405)" fill="url(#linear-gradient-12)"/>
    <path id="Path_556" data-name="Path 556" d="M191.238,177.519a1.611,1.611,0,0,1-.49,1.361,8,8,0,0,1-2.382.426l-26.441.685c-3.956.109-7.259-2.631-7.386-6.111v-.454a2.455,2.455,0,0,1,2.545-2.373l7.495-.2c1.588.485,3.353,1.62,1.6,2.845-.885.626-2.232.377-2.232,1.674,0,.966,1.025,1.765,1.987,2.073a8.974,8.974,0,0,0,3.326.2,122.221,122.221,0,0,1,12.817-.549c2.722.1,5.485.454,8.126-.122a1.17,1.17,0,0,1,.717,0,.667.667,0,0,1,.318.549Z" transform="translate(-98.325 -110.302)" fill="url(#linear-gradient-13)"/>
    <path id="Path_557" data-name="Path 557" d="M155.112,165.807a.744.744,0,0,0-.907.073,1.66,1.66,0,0,0-.417.8,1.911,1.911,0,0,0,.045,1.729,2.477,2.477,0,0,0,1.243.7l2.268.749a1.4,1.4,0,0,0,.676.1c.254-.041.454-.218.7-.281s.6.1.517.313c.177-.227.581-.177.839-.027a5.059,5.059,0,0,0,.749.49c.735.263,1.665-.386,2.314,0,.172.1.3.268.5.313a1.481,1.481,0,0,0,.73-.222c.871-.395,1.9.086,2.758.495s2.064.7,2.722.059l-.454-.15a2,2,0,0,1,1.715.622,4.582,4.582,0,0,1,1.692-1.007.758.758,0,0,1,.454-.041c.2.073.3.29.495.377a2.151,2.151,0,0,0,.744,0,1.942,1.942,0,0,1,.907.4,3.571,3.571,0,0,0,3.757-.177,1.565,1.565,0,0,1,.576-.336c.513-.109.907.358,1.361.6a2.591,2.591,0,0,0,1.815.132c.612-.145,1.175-.413,1.769-.6a14.382,14.382,0,0,1,3.879-.454l.957-.027a3.28,3.28,0,0,1,1.261-.862.907.907,0,0,1,.558,0,.83.83,0,0,1,.3.254,5.625,5.625,0,0,1,.762,1.189,4.237,4.237,0,0,1,1.592-.69,6.487,6.487,0,0,1,.785-.032,14.119,14.119,0,0,0,2.5-.358,3.176,3.176,0,0,0,1.447-.558,1.615,1.615,0,0,0,.49-1.393,4.814,4.814,0,0,0-.485-1.438,1.887,1.887,0,0,0-1.062-1.171,2.236,2.236,0,0,0-.74-.045,19.752,19.752,0,0,0-2.64.354c.064-.259-.191-.508-.481-.581a2.019,2.019,0,0,0-.885.041l-1.4.272a1.144,1.144,0,0,1-.39.027,1.389,1.389,0,0,1-.454-.213,2.21,2.21,0,0,0-2.5.263,8.4,8.4,0,0,0-4.437-.345c-1.411.254-2.772.7-4.188.907-2.45.363-4.95,0-7.431,0-3.067,0-6.211.526-9.16-.222-1.207-.3-2.445-.826-3.666-.558l.617.313a4.024,4.024,0,0,0-1.96.426c0-.24-.231-.431-.454-.549a2.311,2.311,0,0,0-2.4.091C155.062,165.626,154.976,165.862,155.112,165.807Z" transform="translate(-97.814 -107.088)" fill="#68e1fd"/>
    <path id="Path_558" data-name="Path 558" d="M155.112,165.807a.744.744,0,0,0-.907.073,1.66,1.66,0,0,0-.417.8,1.911,1.911,0,0,0,.045,1.729,2.477,2.477,0,0,0,1.243.7l2.268.749a1.4,1.4,0,0,0,.676.1c.254-.041.454-.218.7-.281s.6.1.517.313c.177-.227.581-.177.839-.027a5.059,5.059,0,0,0,.749.49c.735.263,1.665-.386,2.314,0,.172.1.3.268.5.313a1.481,1.481,0,0,0,.73-.222c.871-.395,1.9.086,2.758.495s2.064.7,2.722.059l-.454-.15a2,2,0,0,1,1.715.622,4.582,4.582,0,0,1,1.692-1.007.758.758,0,0,1,.454-.041c.2.073.3.29.495.377a2.151,2.151,0,0,0,.744,0,1.942,1.942,0,0,1,.907.4,3.571,3.571,0,0,0,3.757-.177,1.565,1.565,0,0,1,.576-.336c.513-.109.907.358,1.361.6a2.591,2.591,0,0,0,1.815.132c.612-.145,1.175-.413,1.769-.6a14.382,14.382,0,0,1,3.879-.454l.957-.027a3.28,3.28,0,0,1,1.261-.862.907.907,0,0,1,.558,0,.83.83,0,0,1,.3.254,5.625,5.625,0,0,1,.762,1.189,4.237,4.237,0,0,1,1.592-.69,6.487,6.487,0,0,1,.785-.032,14.119,14.119,0,0,0,2.5-.358,3.176,3.176,0,0,0,1.447-.558,1.615,1.615,0,0,0,.49-1.393,4.814,4.814,0,0,0-.485-1.438,1.887,1.887,0,0,0-1.062-1.171,2.236,2.236,0,0,0-.74-.045,19.752,19.752,0,0,0-2.64.354c.064-.259-.191-.508-.481-.581a2.019,2.019,0,0,0-.885.041l-1.4.272a1.144,1.144,0,0,1-.39.027,1.389,1.389,0,0,1-.454-.213,2.21,2.21,0,0,0-2.5.263,8.4,8.4,0,0,0-4.437-.345c-1.411.254-2.772.7-4.188.907-2.45.363-4.95,0-7.431,0-3.067,0-6.211.526-9.16-.222-1.207-.3-2.445-.826-3.666-.558l.617.313a4.024,4.024,0,0,0-1.96.426c0-.24-.231-.431-.454-.549a2.311,2.311,0,0,0-2.4.091C155.062,165.626,154.976,165.862,155.112,165.807Z" transform="translate(-97.814 -107.088)" fill="url(#linear-gradient-14)"/>
    <path id="Path_559" data-name="Path 559" d="M194.218,157.728l3.362,3.176a2.654,2.654,0,0,1,.73.935.835.835,0,0,1-.327,1.025,1.692,1.692,0,0,1-.858.127l-6.769-.181c-1.452-.036-2.9-.077-4.346-.036-3.153.091-6.288.554-9.446.481a23.747,23.747,0,0,0-2.377-.172,10.652,10.652,0,0,0-1.533.54,16.183,16.183,0,0,1-4.31.635c-4.228.1-7.713-1.207-7.745-2.908s3.339-3.176,7.568-3.248,7.713,1.207,7.745,2.908c.023.789-.7,1.529-1.906,2.1-3.226.336-6.805.549-10.036.694-2.386.1-4.619-.907-7-1.089a34.676,34.676,0,0,0-9.85.708c-.263-.671.417-1.32,1.039-1.774a18.329,18.329,0,0,1,4.859-2.758,22.584,22.584,0,0,1,4.324-.853c8.552-1.1,17.141-2.209,25.783-2.178C187,155.891,191.573,155.219,194.218,157.728Z" transform="translate(-94.241 -102.08)" fill="#68e1fd"/>
    <path id="Path_560" data-name="Path 560" d="M194.218,157.728l3.362,3.176a2.654,2.654,0,0,1,.73.935.835.835,0,0,1-.327,1.025,1.692,1.692,0,0,1-.858.127l-6.769-.181c-1.452-.036-2.9-.077-4.346-.036-3.153.091-6.288.554-9.446.481a23.747,23.747,0,0,0-2.377-.172,10.652,10.652,0,0,0-1.533.54,16.183,16.183,0,0,1-4.31.635c-4.228.1-7.713-1.207-7.745-2.908s3.339-3.176,7.568-3.248,7.713,1.207,7.745,2.908c.023.789-.7,1.529-1.906,2.1-3.226.336-6.805.549-10.036.694-2.386.1-4.619-.907-7-1.089a34.676,34.676,0,0,0-9.85.708c-.263-.671.417-1.32,1.039-1.774a18.329,18.329,0,0,1,4.859-2.758,22.584,22.584,0,0,1,4.324-.853c8.552-1.1,17.141-2.209,25.783-2.178C187,155.891,191.573,155.219,194.218,157.728Z" transform="translate(-94.241 -102.08)" fill="#68e1fd"/>
    <path id="Path_561" data-name="Path 561" d="M194.218,157.728l3.362,3.176a2.654,2.654,0,0,1,.73.935.835.835,0,0,1-.327,1.025,1.692,1.692,0,0,1-.858.127l-6.769-.181c-1.452-.036-2.9-.077-4.346-.036-3.153.091-6.288.554-9.446.481a23.747,23.747,0,0,0-2.377-.172,10.652,10.652,0,0,0-1.533.54,16.183,16.183,0,0,1-4.31.635c-4.228.1-7.713-1.207-7.745-2.908s3.339-3.176,7.568-3.248,7.713,1.207,7.745,2.908c.023.789-.7,1.529-1.906,2.1-3.226.336-6.805.549-10.036.694-2.386.1-4.619-.907-7-1.089a34.676,34.676,0,0,0-9.85.708c-.263-.671.417-1.32,1.039-1.774a18.329,18.329,0,0,1,4.859-2.758,22.584,22.584,0,0,1,4.324-.853c8.552-1.1,17.141-2.209,25.783-2.178C187,155.891,191.573,155.219,194.218,157.728Z" transform="translate(-94.241 -102.08)" fill="url(#linear-gradient-15)"/>
    <path id="Path_562" data-name="Path 562" d="M152.78,163.578a11,11,0,0,1,5.272-.372,17,17,0,0,0,3,.907,10.607,10.607,0,0,0,1.892-.123,30.131,30.131,0,0,1,4.147.077,31.033,31.033,0,0,0,5.621-.281,17.8,17.8,0,0,1,3.5-.327c1.307.077,2.563.522,3.875.567,2.414.086,4.664-1.189,7.087-1.243a16.276,16.276,0,0,0,3.489-.045,4.492,4.492,0,0,1,.944-.2,3.421,3.421,0,0,1,.88.136,8.393,8.393,0,0,0,3.63,0,1.538,1.538,0,0,0,.54-.2,1.152,1.152,0,0,0,.413-.563,3.525,3.525,0,0,0-.186-3.1c-4.764,1.116-9.782.785-14.713.808-7.713.041-15.426.98-23.138.395-1.166-.086-3.326-.417-4.237.454a6.856,6.856,0,0,0-.753,1.2C153.851,162.009,153.134,163.5,152.78,163.578Z" transform="translate(-97.365 -103.724)" fill="#68e1fd"/>
    <ellipse id="Ellipse_87" data-name="Ellipse 87" cx="7.64" cy="3.085" rx="7.64" ry="3.085" transform="translate(82.75 55.334) rotate(-7.45)" fill="url(#linear-gradient-16)"/>
    <ellipse id="Ellipse_88" data-name="Ellipse 88" cx="7.64" cy="3.085" rx="7.64" ry="3.085" transform="translate(82.536 54.16) rotate(-7.45)" fill="url(#linear-gradient-17)"/>
    <ellipse id="Ellipse_89" data-name="Ellipse 89" cx="7.658" cy="3.081" rx="7.658" ry="3.081" transform="translate(66.803 55.779) rotate(-1.2)" fill="url(#linear-gradient-18)"/>
    <path id="Path_563" data-name="Path 563" d="M150.653,146.958c-.068,1.778-1.992,2.99-3.693,3.956-.5.286-1.048.649-1.08,1.171a1.275,1.275,0,0,0,.3.8,4.437,4.437,0,0,0,4.219,1.565c1.257-.227,2.572-.966,3.72-.454.808.358,1.152,1.211,1.815,1.729a2.722,2.722,0,0,0,2.482.363c1.043-.372,1.76-1.361,2.876-1.506,1.479-.177,2.532,1.2,3.875,1.769a3.825,3.825,0,0,0,3.062-.068c1.384-.662,2.309-2.187,3.884-2.228a3.757,3.757,0,0,1,1.279.236,12.063,12.063,0,0,1,2.268.994.794.794,0,0,0,.544.15.649.649,0,0,0,.367-.318,6.806,6.806,0,0,1,1.329-1.724,2.028,2.028,0,0,1,2.178-.295,3.054,3.054,0,0,1,.835.953,1.515,1.515,0,0,0,1.053.721c.454.036.93-.431.676-.771.045-.867,1.9-1.261,2.84-.994s1.729.885,2.69,1.084a3.026,3.026,0,0,0,3.407-1.792.935.935,0,0,1,.313-.576,1.021,1.021,0,0,1,.871.045,8.121,8.121,0,0,0,2.917.776c1.025-.014,2.128-.7,2.06-1.6a2.435,2.435,0,0,0-1.043-1.479l-3.176-2.722a2.926,2.926,0,0,0-1.248-.744,3.135,3.135,0,0,0-.966,0c-3,.3-5.957.948-8.956,1.284-7.15.8-14.378-.145-21.569-.54C157.608,146.572,153.77,146.3,150.653,146.958Z" transform="translate(-93.595 -96.708)" fill="#68e1fd"/>
    <path id="Path_564" data-name="Path 564" d="M150.653,146.958c-.068,1.778-1.992,2.99-3.693,3.956-.5.286-1.048.649-1.08,1.171a1.275,1.275,0,0,0,.3.8,4.437,4.437,0,0,0,4.219,1.565c1.257-.227,2.572-.966,3.72-.454.808.358,1.152,1.211,1.815,1.729a2.722,2.722,0,0,0,2.482.363c1.043-.372,1.76-1.361,2.876-1.506,1.479-.177,2.532,1.2,3.875,1.769a3.825,3.825,0,0,0,3.062-.068c1.384-.662,2.309-2.187,3.884-2.228a3.757,3.757,0,0,1,1.279.236,12.063,12.063,0,0,1,2.268.994.794.794,0,0,0,.544.15.649.649,0,0,0,.367-.318,6.806,6.806,0,0,1,1.329-1.724,2.028,2.028,0,0,1,2.178-.295,3.054,3.054,0,0,1,.835.953,1.515,1.515,0,0,0,1.053.721c.454.036.93-.431.676-.771.045-.867,1.9-1.261,2.84-.994s1.729.885,2.69,1.084a3.026,3.026,0,0,0,3.407-1.792.935.935,0,0,1,.313-.576,1.021,1.021,0,0,1,.871.045,8.121,8.121,0,0,0,2.917.776c1.025-.014,2.128-.7,2.06-1.6a2.435,2.435,0,0,0-1.043-1.479l-3.176-2.722a2.926,2.926,0,0,0-1.248-.744,3.135,3.135,0,0,0-.966,0c-3,.3-5.957.948-8.956,1.284-7.15.8-14.378-.145-21.569-.54C157.608,146.572,153.77,146.3,150.653,146.958Z" transform="translate(-93.595 -96.708)" fill="url(#linear-gradient-19)"/>
    <path id="Path_565" data-name="Path 565" d="M151.473,150.273c-.735,1.606-3.557,1.924-4.083,3.593a9.6,9.6,0,0,0,5.444-2.214,4.151,4.151,0,0,1-.712,1.815l2.377-1.815a3.825,3.825,0,0,1-.662,2.768c.644-.25.907-.907,1.2-1.475s.812-1.175,1.511-1.107c.408.454.268,1.134.227,1.729a4.664,4.664,0,0,0,1.679,3.8,5.069,5.069,0,0,0-.454-2.722,1.96,1.96,0,0,1,.785-2.454,4.038,4.038,0,0,0,.681,2.137l-.132-1.91.617.295a2.11,2.11,0,0,1,2.037-.744l.753,3.63a4.8,4.8,0,0,0,.163-3.675,1.574,1.574,0,0,1,1.484.6,3.584,3.584,0,0,1,.572,1.434,1.5,1.5,0,0,0,.531-1.738c.994.363,1.361,1.4,1.706,2.3s.985,1.91,2.064,1.96a10.34,10.34,0,0,1-1.692-3.938,1.084,1.084,0,0,1,1.075.907l1.248-1.361a3.276,3.276,0,0,0,1.479,2.6,10.367,10.367,0,0,0,3.008,1.393,3.575,3.575,0,0,0,2.019.236c1.275-.345,1.588-1.815,2.6-2.586-1.588.041-2.722,1.629-4.324,1.6a3.525,3.525,0,0,1-1.479-.426,8.066,8.066,0,0,1-2.373-1.76c-.186-.2-.363-.481-.218-.708a.7.7,0,0,1,.363-.231c1.18-.417,2.5-.082,3.77-.073a14.806,14.806,0,0,0,2.191-.209,15.688,15.688,0,0,0,3.6-.821,7.309,7.309,0,0,1,1.393,3.589,8.425,8.425,0,0,0,.309-3.375,22.254,22.254,0,0,0,3.094.29c-.213.907.73,1.7,1.642,2.169a13.375,13.375,0,0,0,2.482.975,3.548,3.548,0,0,0,1.815.141,3.262,3.262,0,0,0,1.928-2.268,4.605,4.605,0,0,1-3.017,1.361,2.937,2.937,0,0,1-2.786-1.5.5.5,0,0,1-.041-.422c.1-.2.377-.263.622-.3l3.707-.576a1.461,1.461,0,0,1,.594,0,1.361,1.361,0,0,1,.426.213l1.506,1-.944-1.774a16.888,16.888,0,0,1,3.575,1.121,1.6,1.6,0,0,0-.6-2.055,6.134,6.134,0,0,0-2.377-.907,17.767,17.767,0,0,1-6.352,1.874c-7.382,1.062-14.917.658-22.376.168a41.284,41.284,0,0,1-7.028-.885,17.635,17.635,0,0,0-2.831-.594,3.7,3.7,0,0,0-2.722.717" transform="translate(-94.42 -98.245)" fill="#68e1fd"/>
    <path id="Path_566" data-name="Path 566" d="M197.55,125.092v1.089c.032,2.722-2.454,4.941-5.549,4.991h-1.438l-32.471.263c-3.094.027-5.626-2.16-5.653-4.882v-1.084c-.064-5.413,3.521-10.108,8.738-12.291a16.854,16.854,0,0,1,6.429-1.32l14.518-.118C190.558,111.685,197.473,117.656,197.55,125.092Z" transform="translate(-97.178 -78.009)" fill="#68e1fd"/>
    <path id="Path_567" data-name="Path 567" d="M196.051,130.453a5.989,5.989,0,0,1-3.63,1.22l-33.909.281c-3.094,0-5.626-2.16-5.653-4.882v-1.089c-.073-7.037,6-12.858,13.819-13.525-5.217,2.182-8.8,6.883-8.738,12.291v1.089c.032,2.722,2.559,4.9,5.653,4.882Z" transform="translate(-97.408 -78.403)" fill="url(#linear-gradient-20)"/>
    <path id="Path_568" data-name="Path 568" d="M192.478,127.828v1.089a4.682,4.682,0,0,1-1.906,3.748l-32.471.263c-3.094.027-5.626-2.16-5.653-4.882v-1.084c-.064-5.413,3.521-10.108,8.738-12.291.454-.041.907-.064,1.361-.064l14.518-.118C185.487,114.421,192.4,120.392,192.478,127.828Z" transform="translate(-97.184 -79.511)" fill="url(#linear-gradient-21)"/>
    <path id="Path_569" data-name="Path 569" d="M179.593,117.1a1,1,0,0,0,.254.172.386.386,0,0,0,.309,0,.277.277,0,0,0,.122-.322.907.907,0,0,0-.2-.318l-.907-1.039a.812.812,0,0,0-.308-.259c-.454-.181-1.007.25-.644.6S179.14,116.718,179.593,117.1Z" transform="translate(-111.198 -79.952)" fill="#68e1fd"/>
    <path id="Path_570" data-name="Path 570" d="M168.5,122.364q1.561-.98,3.176-1.851a.191.191,0,0,1,.145-.036.154.154,0,0,1,.086.091l.318.572a19.182,19.182,0,0,1-1.878,1.456.794.794,0,0,1-.612.186c-.263-.077-.331-.372-.49-.567" transform="translate(-105.953 -82.781)" fill="#68e1fd"/>
    <path id="Path_571" data-name="Path 571" d="M180.855,123.565c.8-.191,1.611-.358,2.427-.495a.3.3,0,0,1-.059.454,1.2,1.2,0,0,1-.508.2l-2.355.522c-.227.05-.975.059-.649-.281A2.849,2.849,0,0,1,180.855,123.565Z" transform="translate(-112.034 -84.199)" fill="#68e1fd"/>
    <path id="Path_572" data-name="Path 572" d="M193.473,117.432a1.017,1.017,0,0,0,.263-.159.277.277,0,0,0,.1-.263.331.331,0,0,0-.309-.2,1.116,1.116,0,0,0-.4.073l-1.406.454a.867.867,0,0,0-.372.181.454.454,0,0,0,.454.726C192.37,118,192.919,117.695,193.473,117.432Z" transform="translate(-118.377 -80.779)" fill="#68e1fd"/>
    <path id="Path_573" data-name="Path 573" d="M201.682,117.231a14.285,14.285,0,0,1,.109-1.765.485.485,0,0,1,.612.567l-.054,1.724c0,.168-.218.667-.535.349C201.6,117.893,201.682,117.458,201.682,117.231Z" transform="translate(-124.072 -80.034)" fill="#68e1fd"/>
    <path id="Path_574" data-name="Path 574" d="M210.671,121.195a.98.98,0,0,0,.245.132.354.354,0,0,0,.272-.027.24.24,0,0,0,.068-.295.808.808,0,0,0-.209-.259l-.907-.83a.758.758,0,0,0-.3-.2c-.408-.118-.853.3-.495.585S210.235,120.891,210.671,121.195Z" transform="translate(-128.193 -82.356)" fill="#68e1fd"/>
    <path id="Path_575" data-name="Path 575" d="M189.487,113.974a.835.835,0,0,0,.2.177.309.309,0,0,0,.268.032.254.254,0,0,0,.154-.268.78.78,0,0,0-.132-.295l-.644-1.007a.8.8,0,0,0-.236-.259c-.367-.2-.907.113-.649.454S189.147,113.58,189.487,113.974Z" transform="translate(-116.814 -78.311)" fill="#68e1fd"/>
    <path id="Path_576" data-name="Path 576" d="M214.395,114.746a.971.971,0,0,0,.259-.091.263.263,0,0,0,.141-.209.281.281,0,0,0-.227-.227.953.953,0,0,0-.358,0l-1.307.145a.875.875,0,0,0-.358.1c-.354.222-.231.785.236.7C213.324,115.059,213.864,114.882,214.395,114.746Z" transform="translate(-129.903 -79.355)" fill="#68e1fd"/>
    <path id="Path_577" data-name="Path 577" d="M212.583,126.4c.681-.24,1.361-.454,2.069-.644a.268.268,0,0,1,0,.39.989.989,0,0,1-.422.218l-2.014.662c-.191.064-.848.132-.594-.2A2.483,2.483,0,0,1,212.583,126.4Z" transform="translate(-129.479 -85.669)" fill="#68e1fd"/>
    <path id="Path_578" data-name="Path 578" d="M196.783,125.133c.726.086,1.447.2,2.16.336.054.136-.068.286-.222.34a1.093,1.093,0,0,1-.485,0l-2.114-.295c-.2-.027-.817-.25-.413-.426A2.613,2.613,0,0,1,196.783,125.133Z" transform="translate(-120.743 -85.282)" fill="#68e1fd"/>
    <path id="Path_579" data-name="Path 579" d="M222.9,120.087a.857.857,0,0,0,.213-.163.231.231,0,0,0,.054-.236.3.3,0,0,0-.295-.15.907.907,0,0,0-.34.1l-1.184.5a.771.771,0,0,0-.3.191.39.39,0,0,0,.481.594C222,120.681,222.445,120.364,222.9,120.087Z" transform="translate(-134.609 -82.269)" fill="#68e1fd"/>
    <path id="Path_580" data-name="Path 580" d="M230.126,118.528c-.05-.64-.068-1.284-.059-1.928a.358.358,0,0,1,.422.122.794.794,0,0,1,.1.417l.1,1.883c0,.181-.113.753-.39.454A1.9,1.9,0,0,1,230.126,118.528Z" transform="translate(-139.586 -80.651)" fill="#68e1fd"/>
    <path id="Path_581" data-name="Path 581" d="M179.593,117.1a1,1,0,0,0,.254.172.386.386,0,0,0,.309,0,.277.277,0,0,0,.122-.322.907.907,0,0,0-.2-.318l-.907-1.039a.812.812,0,0,0-.308-.259c-.454-.181-1.007.25-.644.6S179.14,116.718,179.593,117.1Z" transform="translate(-111.198 -79.952)" fill="url(#linear-gradient-22)"/>
    <path id="Path_582" data-name="Path 582" d="M168.5,122.364q1.561-.98,3.176-1.851a.191.191,0,0,1,.145-.036.154.154,0,0,1,.086.091l.318.572a19.182,19.182,0,0,1-1.878,1.456.794.794,0,0,1-.612.186c-.263-.077-.331-.372-.49-.567" transform="translate(-105.953 -82.781)" fill="url(#linear-gradient-23)"/>
    <path id="Path_583" data-name="Path 583" d="M180.855,123.565c.8-.191,1.611-.358,2.427-.495a.3.3,0,0,1-.059.454,1.2,1.2,0,0,1-.508.2l-2.355.522c-.227.05-.975.059-.649-.281A2.849,2.849,0,0,1,180.855,123.565Z" transform="translate(-112.034 -84.199)" fill="url(#linear-gradient-24)"/>
    <path id="Path_584" data-name="Path 584" d="M193.473,117.432a1.017,1.017,0,0,0,.263-.159.277.277,0,0,0,.1-.263.331.331,0,0,0-.309-.2,1.116,1.116,0,0,0-.4.073l-1.406.454a.867.867,0,0,0-.372.181.454.454,0,0,0,.454.726C192.37,118,192.919,117.695,193.473,117.432Z" transform="translate(-118.377 -80.779)" fill="url(#linear-gradient-25)"/>
    <path id="Path_585" data-name="Path 585" d="M201.682,117.231a14.285,14.285,0,0,1,.109-1.765.485.485,0,0,1,.612.567l-.054,1.724c0,.168-.218.667-.535.349C201.6,117.893,201.682,117.458,201.682,117.231Z" transform="translate(-124.072 -80.034)" fill="url(#linear-gradient-26)"/>
    <path id="Path_586" data-name="Path 586" d="M210.671,121.195a.98.98,0,0,0,.245.132.354.354,0,0,0,.272-.027.24.24,0,0,0,.068-.295.808.808,0,0,0-.209-.259l-.907-.83a.758.758,0,0,0-.3-.2c-.408-.118-.853.3-.495.585S210.235,120.891,210.671,121.195Z" transform="translate(-128.193 -82.356)" fill="url(#linear-gradient-27)"/>
    <path id="Path_587" data-name="Path 587" d="M189.487,113.974a.835.835,0,0,0,.2.177.309.309,0,0,0,.268.032.254.254,0,0,0,.154-.268.78.78,0,0,0-.132-.295l-.644-1.007a.8.8,0,0,0-.236-.259c-.367-.2-.907.113-.649.454S189.147,113.58,189.487,113.974Z" transform="translate(-116.814 -78.311)" fill="url(#linear-gradient-28)"/>
    <path id="Path_588" data-name="Path 588" d="M214.395,114.746a.971.971,0,0,0,.259-.091.263.263,0,0,0,.141-.209.281.281,0,0,0-.227-.227.953.953,0,0,0-.358,0l-1.307.145a.875.875,0,0,0-.358.1c-.354.222-.231.785.236.7C213.324,115.059,213.864,114.882,214.395,114.746Z" transform="translate(-129.903 -79.355)" fill="url(#linear-gradient-29)"/>
    <path id="Path_589" data-name="Path 589" d="M212.583,126.4c.681-.24,1.361-.454,2.069-.644a.268.268,0,0,1,0,.39.989.989,0,0,1-.422.218l-2.014.662c-.191.064-.848.132-.594-.2A2.483,2.483,0,0,1,212.583,126.4Z" transform="translate(-129.479 -85.669)" fill="url(#linear-gradient-30)"/>
    <path id="Path_590" data-name="Path 590" d="M196.783,125.133c.726.086,1.447.2,2.16.336.054.136-.068.286-.222.34a1.093,1.093,0,0,1-.485,0l-2.114-.295c-.2-.027-.817-.25-.413-.426A2.613,2.613,0,0,1,196.783,125.133Z" transform="translate(-120.743 -85.282)" fill="url(#linear-gradient-31)"/>
    <path id="Path_591" data-name="Path 591" d="M222.9,120.087a.857.857,0,0,0,.213-.163.231.231,0,0,0,.054-.236.3.3,0,0,0-.295-.15.907.907,0,0,0-.34.1l-1.184.5a.771.771,0,0,0-.3.191.39.39,0,0,0,.481.594C222,120.681,222.445,120.364,222.9,120.087Z" transform="translate(-134.609 -82.269)" fill="url(#linear-gradient-32)"/>
    <path id="Path_592" data-name="Path 592" d="M230.126,118.528c-.05-.64-.068-1.284-.059-1.928a.358.358,0,0,1,.422.122.794.794,0,0,1,.1.417l.1,1.883c0,.181-.113.753-.39.454A1.9,1.9,0,0,1,230.126,118.528Z" transform="translate(-139.586 -80.651)" fill="url(#linear-gradient-33)"/>
    <path id="Path_593" data-name="Path 593" d="M155.986,172.139a2.8,2.8,0,0,0,2.931.957.681.681,0,0,1,.268-.045c.263.032.372.363.631.386a1.284,1.284,0,0,0,.345-.064c.426-.073.73.331,1.08.558a2.812,2.812,0,0,0,1.9.2,3.461,3.461,0,0,1,1.928.073,2.609,2.609,0,0,0,.721.336,1.361,1.361,0,0,0,.454,0,3.283,3.283,0,0,1,1.865.064c.281.136.5.358.789.481s.712.086.826-.177c-1.239-.132-2.223-1.048-3.457-1.22a8.743,8.743,0,0,0-1.361,0c-.622,0-1.239-.027-1.86-.068a5.566,5.566,0,0,1-1.647-.272c-.363-.145-.685-.363-1.039-.531a5.712,5.712,0,0,0-2.622-.495,4.143,4.143,0,0,1-1.089-.045c-.6-.15-1.116-.635-1.729-.54a.78.78,0,0,0,.5.544,2.817,2.817,0,0,0,.808.172" transform="translate(-98.534 -110.779)" fill="url(#linear-gradient-34)"/>
    <path id="Path_594" data-name="Path 594" d="M200.5,200.877a43.717,43.717,0,0,1-5.7,5.444q-13.1,11.265-25.561,23.243c-1.116,1.075-2.237,2.155-3.33,3.262-.426.426-.848.853-1.261,1.288l-.758.789-.122.136a47.356,47.356,0,0,0-7.459,10.067c-.209.395-.413.789-.626,1.18a7.781,7.781,0,0,1-1.738,2.337,5.649,5.649,0,0,1-1.651.962l-.077.032h-.694c-2.831,0-5.68,0-8.507-.181a55.485,55.485,0,0,1-7.082-.862h-.1l-.4-.05a.261.261,0,0,1-.113-.054h0a53.285,53.285,0,0,0,6.719-7.912q1.325-1.91,2.482-3.943a23.829,23.829,0,0,0,2.268-5.013,29.383,29.383,0,0,0,.839-8.52c0-3.126-.073-6.252-.24-9.378a29.317,29.317,0,0,0-1.034-7.137,11.319,11.319,0,0,0-3.952-5.9,4.877,4.877,0,0,1,4.723-1.27c2.686.762,4.138,3.63,5.1,6.234s1.933,5.535,4.328,6.964c2.209,1.32,5.113.948,7.377-.272a22.413,22.413,0,0,0,5.748-5.095l5.317-5.934c1.706-1.9,3.861-3.979,6.388-3.607a1.266,1.266,0,0,1,.676.263,1.4,1.4,0,0,1,.177,1.4c-1.211,4.646-5.5,7.853-7.4,12.25a75.569,75.569,0,0,1,14.872-12.39,5.367,5.367,0,0,1,2.314-1.025,1.932,1.932,0,0,1,2.073,1.134,2.554,2.554,0,0,1-.268,1.774A11.655,11.655,0,0,1,192,203.953a21.909,21.909,0,0,1,7.141-4.514c.644-.245,1.606-.322,1.815.34A1.289,1.289,0,0,1,200.5,200.877Z" transform="translate(-87.821 -124.939)" fill="#e4a98a"/>
    <path id="Path_595" data-name="Path 595" d="M169.1,153.06l-7.767,3.221-4.5,1.865H76.365l-4.31-1.865L64.61,153.06Z" transform="translate(-35.287 -83.601)" fill="#fff"/>
    <path id="Path_596" data-name="Path 596" d="M170.3,160.16l-4.5,1.865H85.33l-4.31-1.865Z" transform="translate(-44.252 -87.48)" fill="url(#linear-gradient-35)"/>
    <rect id="Rectangle_105" data-name="Rectangle 105" width="33.297" height="3.425" transform="translate(38.27 23.227)" fill="#68e1fd"/>
    <path id="Path_597" data-name="Path 597" d="M118.3,25V17.149L134.991,7.78l2.055,2.554L121.707,18.51,121.535,25Z" transform="translate(-64.618 -4.234)" fill="#fff"/>
    <path id="Path_598" data-name="Path 598" d="M137.047,10.334,121.707,18.51,121.535,25H118.3V17.149L134.991,7.78l.826,1.025Z" transform="translate(-64.618 -4.234)" fill="#fff"/>
    <path id="Path_599" data-name="Path 599" d="M138.533,11.569l-15.339,8.176-.172,6.492h-2V19.182L137.3,10.04Z" transform="translate(-66.104 -5.468)" fill="url(#linear-gradient-36)"/>
    <path id="Path_600" data-name="Path 600" d="M167.035,274.9a15.942,15.942,0,0,0-1.611,1.406c-.259.254-.513.517-.758.789l-.122.136a47.355,47.355,0,0,0-7.459,10.067c-.209.395-.413.789-.626,1.18a7.782,7.782,0,0,1-1.738,2.337,5.649,5.649,0,0,1-1.651.962l-.077.032H152.3c-2.831,0-5.68,0-8.507-.181a55.474,55.474,0,0,1-7.082-.862h0c.254-.109.495-.209.69-.3a27.043,27.043,0,0,0,3.87-2.268c1.416-1,2.722-2.141,4.147-3.144.272-.2.554-.39.835-.572,3.843-2.486,8.416-3.557,12.531-5.562,2.641-1.288,5.113-2.972,7.894-3.911A3.406,3.406,0,0,0,167.035,274.9Z" transform="translate(-88.586 -167.145)" opacity="0.42" fill="url(#linear-gradient-37)"/>
    <path id="Path_601" data-name="Path 601" d="M149.429,297.249a3.068,3.068,0,0,1-1.974,2.745,5.942,5.942,0,0,1-1.815.454h-.023c-.331.036-.667.054-1,.059h-.694c-2.831,0-5.68,0-8.507-.181a55.479,55.479,0,0,1-7.082-.862h-.1c-.172-.032-.345-.064-.517-.1h-.05A12.419,12.419,0,0,1,121.4,296.6a1.048,1.048,0,0,0,.907.136c2.128-.336,6.783-3.394,7.59-4,1.243-.907,2.146-2.391,3.729-1.778a3.353,3.353,0,0,1,.817.5c.857.667,1.769,1.747,2.631,2.318.082.054.163.1.24.145a26.768,26.768,0,0,0,10.793,3.271Q148.758,297.249,149.429,297.249Z" transform="translate(-80.222 -175.838)" fill="#68e1fd"/>
    <path id="Path_602" data-name="Path 602" d="M149.429,297.249a3.068,3.068,0,0,1-1.974,2.745,5.942,5.942,0,0,1-1.815.454h-.023c-.331.036-.667.054-1,.059h-.694c-2.831,0-5.68,0-8.507-.181a55.479,55.479,0,0,1-7.082-.862h-.1c-.172-.032-.345-.064-.517-.1h-.05A12.419,12.419,0,0,1,121.4,296.6a1.048,1.048,0,0,0,.907.136c2.128-.336,6.783-3.394,7.59-4,1.243-.907,2.146-2.391,3.729-1.778a3.353,3.353,0,0,1,.817.5c.857.667,1.769,1.747,2.631,2.318.082.054.163.1.24.145a26.768,26.768,0,0,0,10.793,3.271Q148.758,297.249,149.429,297.249Z" transform="translate(-80.222 -175.838)" fill="url(#linear-gradient-38)"/>
  </g>
</svg>
