<svg xmlns="http://www.w3.org/2000/svg" width="801.178" height="435.532" viewBox="0 0 801.178 435.532">
  <g id="undraw_page_not_found_su7k" transform="translate(0.082)">
    <ellipse id="Ellipse_5" data-name="Ellipse 5" cx="393.24" cy="26.033" rx="393.24" ry="26.033" transform="translate(9.798 383.465)" fill="#f2f2f2"/>
    <path id="Path_5" data-name="Path 5" d="M545.9,324.894c-64.07,0-110.071,41.105-110.071,137.018,0,108.7,46,137.475,110.071,137.475s112.811-31.514,112.811-137.475C658.711,348.644,609.969,324.894,545.9,324.894Zm.421,238.41c-44.376,0-67.56-26.034-67.56-101.323,0-66.431,24.133-101.463,68.509-101.463s68.509,23.011,68.509,101.463c0,73.391-25.082,101.323-69.458,101.323Z" transform="translate(-157.933 -200.392)" fill="#2f2e41"/>
    <path id="Path_6" data-name="Path 6" d="M316.533,527.252h-26.49V449.246a15.622,15.622,0,0,0-15.622-15.622h-6.207a15.622,15.622,0,0,0-15.622,15.622v78.006H177.873a8.918,8.918,0,0,1-7.885-13.085L249.069,364.49a15.622,15.622,0,0,0-7.142-21.424l-4.668-2.2a15.622,15.622,0,0,0-20.448,6.761L120.36,528.053a21.183,21.183,0,0,0-2.5,9.987h0a21.183,21.183,0,0,0,21.183,21.183H252.592v49.326a18.726,18.726,0,0,0,18.726,18.726h0a18.726,18.726,0,0,0,18.726-18.726V559.223h26.49a15.985,15.985,0,0,0,15.985-15.985h0a15.985,15.985,0,0,0-15.985-15.985Z" transform="translate(-77.003 -204.074)" fill="red"/>
    <path id="Path_7" data-name="Path 7" d="M974.529,527.252h-26.49V449.246a15.622,15.622,0,0,0-15.62-15.622h-6.207a15.622,15.622,0,0,0-15.622,15.622v78.006h-74.72a8.918,8.918,0,0,1-7.885-13.085L907.066,364.49a15.622,15.622,0,0,0-7.142-21.424l-4.668-2.2a15.622,15.622,0,0,0-20.448,6.761l-96.451,180.43a21.186,21.186,0,0,0-2.5,9.987h0a21.183,21.183,0,0,0,21.183,21.183h113.55v49.326a18.726,18.726,0,0,0,18.726,18.726h0a18.726,18.726,0,0,0,18.726-18.726V559.223h26.49a15.985,15.985,0,0,0,15.985-15.985h0a15.985,15.985,0,0,0-15.986-15.985Z" transform="translate(-244.476 -204.074)" fill="#f70000"/>
    <path id="Path_8" data-name="Path 8" d="M326.337,515h-26.49V436.993a15.622,15.622,0,0,0-15.622-15.622h-6.207A15.622,15.622,0,0,0,262.4,436.993V515h-74.72a8.918,8.918,0,0,1-7.885-13.085l79.082-149.677a15.622,15.622,0,0,0-7.142-21.424l-4.668-2.2a15.622,15.622,0,0,0-20.448,6.762L130.163,515.8a21.184,21.184,0,0,0-2.5,9.987h0a21.183,21.183,0,0,0,21.183,21.183h113.55V596.3a18.726,18.726,0,0,0,18.726,18.726h0A18.726,18.726,0,0,0,299.846,596.3V546.97h26.49a15.985,15.985,0,0,0,15.985-15.985h0A15.985,15.985,0,0,0,326.337,515Z" transform="translate(-79.498 -200.956)" fill="none" stroke="#3f3d56" stroke-miterlimit="10" stroke-width="1"/>
    <path id="Path_9" data-name="Path 9" d="M992.909,515h-26.49V436.993A15.622,15.622,0,0,0,950.8,421.371h-6.206a15.622,15.622,0,0,0-15.622,15.622V515h-74.72a8.918,8.918,0,0,1-7.885-13.085l79.082-149.677a15.622,15.622,0,0,0-7.142-21.424l-4.668-2.2a15.622,15.622,0,0,0-20.448,6.762L796.736,515.8a21.184,21.184,0,0,0-2.5,9.987h0a21.183,21.183,0,0,0,21.183,21.183H928.968V596.3a18.725,18.725,0,0,0,18.726,18.726h0A18.726,18.726,0,0,0,966.42,596.3V546.97h26.49a15.986,15.986,0,0,0,15.985-15.985h0A15.985,15.985,0,0,0,992.909,515Z" transform="translate(-249.154 -200.956)" fill="none" stroke="#3f3d56" stroke-miterlimit="10" stroke-width="1"/>
    <path id="Path_10" data-name="Path 10" d="M565.5,313.866c-64.07,0-110.071,41.105-110.071,137.018,0,108.7,46,137.475,110.071,137.475s112.811-31.514,112.811-137.475C678.316,337.616,629.574,313.866,565.5,313.866Zm.421,238.41c-44.376,0-67.56-26.034-67.56-101.323,0-66.431,24.133-101.463,68.509-101.463s68.509,23.011,68.509,101.463c0,73.391-25.082,101.323-69.458,101.323Z" transform="translate(-162.923 -197.585)" fill="none" stroke="#3f3d56" stroke-miterlimit="10" stroke-width="1"/>
    <circle id="Ellipse_6" data-name="Ellipse 6" cx="9.618" cy="9.618" r="9.618" transform="translate(341.608 3.988)" fill="#2f2e41"/>
    <ellipse id="Ellipse_7" data-name="Ellipse 7" cx="26.976" cy="34.952" rx="26.976" ry="34.952" transform="translate(347.707 0)" fill="#2f2e41"/>
    <path id="Path_11" data-name="Path 11" d="M556.451,227.363c-13.514,0-24.706-12.875-26.67-29.674a45.433,45.433,0,0,0-.306,5.278c0,19.3,12.078,34.952,26.976,34.952s26.976-15.648,26.976-34.952a45.46,45.46,0,0,0-.306-5.278C581.157,214.488,569.965,227.363,556.451,227.363Z" transform="translate(-181.768 -168.016)" opacity="0.1"/>
    <path id="Path_12" data-name="Path 12" d="M625.359,338.761c-.579,2.381-3.077,4.287-5.844,5.619-5.816,2.8-12.99,3.636-19.949,3.917a33.679,33.679,0,0,1-5.326-.1,15.309,15.309,0,0,1-9.132-4.2,1.253,1.253,0,0,1,.033-2.12c3.7-4.07,9.887-6.565,16.114-8.361,4.722-1.362,12.957-4.891,18.108-4.415C624.351,329.566,626.091,335.755,625.359,338.761Z" transform="translate(-195.783 -201.452)" fill="#3f3d56"/>
    <path id="Path_13" data-name="Path 13" d="M625.359,338.761c-.579,2.381-3.077,4.287-5.844,5.619-5.816,2.8-12.99,3.636-19.949,3.917a33.679,33.679,0,0,1-5.326-.1,15.309,15.309,0,0,1-9.132-4.2,1.253,1.253,0,0,1,.033-2.12c3.7-4.07,9.887-6.565,16.114-8.361,4.722-1.362,12.957-4.891,18.108-4.415C624.351,329.566,626.091,335.755,625.359,338.761Z" transform="translate(-195.783 -201.452)" opacity="0.1"/>
    <path id="Path_14" data-name="Path 14" d="M539.548,304.933a14.738,14.738,0,0,0-.894,11.238,19.636,19.636,0,0,0,6.582,9.316c7.525,6.032,17.882,6.862,27.527,6.778a212.2,212.2,0,0,0,25.276-1.732,30.216,30.216,0,0,0,8.2-1.9,12.571,12.571,0,0,0,7.034-7.1,8.651,8.651,0,0,0-2.336-9.374c-2.339-1.9-5.563-2.162-8.571-2.343l-17.211-1.034c1.7-1.721,3.965-2.694,6.035-3.945,2.747-1.66,4.572-4.446,6.57-6.959a96.177,96.177,0,0,1,10.018-10.3c.56,3.213,2.593,5.852,4.985,8.069s5.15,4,7.637,6.113c6.022,5.113,10.359,12.052,16.693,16.774a32.674,32.674,0,0,0,11.964-5.973L646.6,308.1a2.937,2.937,0,0,0-.928-1.158c-.7-.429-1.6-.208-2.4-.329-2.162-.324-3.107-2.821-3.956-4.836-2.33-5.533-6.79-9.825-10.6-14.465a73.062,73.062,0,0,1-7.452-10.976,37.545,37.545,0,0,0-4.188-6.712,9.446,9.446,0,0,0-6.813-3.564c-2.335,0-4.489,1.181-6.5,2.373a171.817,171.817,0,0,0-17.616,12c-2.94,2.282-5.862,4.694-9.31,6.094-1.452.589-2.982.992-4.375,1.709-2.44,1.256-4.292,3.38-6.285,5.266A41.778,41.778,0,0,1,539.548,304.933Z" transform="translate(-183.922 -185.417)" fill="#3f3d56"/>
    <path id="Path_15" data-name="Path 15" d="M580.81,243.531a17.723,17.723,0,0,1-1.293,5.989,7.488,7.488,0,0,1-4.3,4.154,9.226,9.226,0,0,1-4.192.136,8.113,8.113,0,0,1-3.415-1.164,7.282,7.282,0,0,1-2.712-5.027c-.293-1.935-.162-3.913-.35-5.862a32.013,32.013,0,0,0-.9-4.663c-.127-.509-.256-1.016-.382-1.522s-.246-1.013-.359-1.52c-.1-.476-.2-.955-.282-1.436-.068-.406-.129-.814-.174-1.224a13.744,13.744,0,0,0-.6-3.587,10.888,10.888,0,0,0-1.257-2.128c-.213-.3-.42-.61-.61-.927a4.391,4.391,0,0,1-.725-2.794,2.44,2.44,0,0,1,.11-.448c.019-.056.04-.113.063-.167a1.343,1.343,0,0,0,.917-.857,2.56,2.56,0,0,0-.11-1.325,8.433,8.433,0,0,0-.715-1.705c-.2-.357-.865-1-.87-1.407-.009-.821,1.6-1.483,2.245-1.806a12.521,12.521,0,0,1,6.409-1.3,4.726,4.726,0,0,1,3.742,1.722c.7,1.072.61,2.461.91,3.706a1.1,1.1,0,0,0,.223.495,1,1,0,0,0,.551.253,3.391,3.391,0,0,0,1.056.042h0a2.177,2.177,0,0,0,.277-.04,3.7,3.7,0,0,0,1.515-.654q.436-.116.88-.19a.19.19,0,0,0,.035-.007c1.175,3.709,1.328,7.685,2.289,11.461a29.411,29.411,0,0,1,1.255,5.667c.007.084.01.171.012.258.014.622-.035,1.248-.009,1.867a5.186,5.186,0,0,0,.094.83,11.628,11.628,0,0,0,.392,1.3l.007.021c.045.136.087.274.122.413.026.1.049.2.068.3l0,.007A11.134,11.134,0,0,1,580.81,243.531Z" transform="translate(-189.195 -171.891)" fill="#fbbebe"/>
    <circle id="Ellipse_8" data-name="Ellipse 8" cx="13.84" cy="13.84" r="13.84" transform="translate(361.313 19.704)" fill="#fbbebe"/>
    <path id="Path_16" data-name="Path 16" d="M656.745,282.631a22.7,22.7,0,0,0-3.9-10.514q.538,3.2,1.079,6.4a2.4,2.4,0,0,1-2.51-.772,7.708,7.708,0,0,1-1.316-2.442,50.3,50.3,0,0,0-6.12-10.985c-8.811-.734-17.52-4.386-25.269-8.644s-15-9.357-22.65-13.793a32.476,32.476,0,0,0-4.133-2.111c-2.393-.959-5.078-1.457-7.347-2.585-.152-.075-.3-.155-.455-.237a9.373,9.373,0,0,1-1.45-.973,7.713,7.713,0,0,1-.694-.638,15.172,15.172,0,0,1-2.653-4.438c-1.217-2.693-1.651-5.942-2.866-8.635a8.348,8.348,0,0,1,1.865-1.316h0c.1-.052.2-.1.3-.148a8.9,8.9,0,0,1,1.494-.547q.436-.116.88-.19a.186.186,0,0,0,.035-.007,8.622,8.622,0,0,1,4.093.324,18.927,18.927,0,0,1,5.175,3.186,84.991,84.991,0,0,1,7.565,6c1.337,1.281,2.557,2.688,3.995,3.852a31.429,31.429,0,0,0,3.77,2.5q11.671,6.953,23.345,13.9c2.634,1.569,5.271,3.139,7.847,4.8,3.913,2.524,7.685,5.259,11.454,7.992q3.332,2.414,6.662,4.83a7.251,7.251,0,0,1,1.888,1.745,6.315,6.315,0,0,1,.837,2.559A23.4,23.4,0,0,1,656.745,282.631Z" transform="translate(-193.726 -173.68)" fill="#fbbebe"/>
    <path id="Path_17" data-name="Path 17" d="M577.99,255.768c-.934,4.187-5.165,6.718-7.378,10.4-2.749,4.565-1.628,9.871-.6,15.1l-5.66,4.877c-1.042.894-2.083,1.792-3.2,2.583a42.756,42.756,0,0,1-5.114,2.937l-5.01,2.578a23.951,23.951,0,0,1-4.9,2.078c-3.291.844-6.786.253-10.042-.725a4.538,4.538,0,0,1-1.1-.448,1.785,1.785,0,0,1-.521-.471,2.916,2.916,0,0,1-.331-1.893,88.993,88.993,0,0,1,3-16.169,47.665,47.665,0,0,1,6.906-16.943,50.962,50.962,0,0,1,5.911-8.583,13.777,13.777,0,0,0,2.74-3.533c.833-1.9.511-4.079.68-6.148a12.785,12.785,0,0,1,1.217-4.478v0a12.745,12.745,0,0,1,1.3-2.149q.341.8.683,1.588.225.521.446,1.039.289.669.572,1.332.82,1.907,1.637,3.812a16.1,16.1,0,0,0,2.486,4.431,4.845,4.845,0,0,0,8.292-.636,15.847,15.847,0,0,0,1.694-4.483,14.323,14.323,0,0,0,.188-5.841c-.565-3.734-2.154-7.549-3.308-11.018a11.14,11.14,0,0,1-.8-3.631,2.5,2.5,0,0,1,.042-.418l.021-.108a8.906,8.906,0,0,1,1.494-.547q.436-.116.88-.19,1.523,8.248,3.052,16.5c.023.129.049.258.073.389.145.788.293,1.576.457,2.362.148.713.307,1.424.486,2.13l.007.021c.061.239.124.476.19.713l0,.007c.181.647.382,1.29.61,1.924C576.47,247.964,578.875,251.806,577.99,255.768Z" transform="translate(-182.943 -173.721)" fill="red"/>
    <path id="Path_18" data-name="Path 18" d="M668.319,342.366a4.908,4.908,0,0,0,.455,2.343c.866,1.583,2.945,1.943,4.743,2.091a140.43,140.43,0,0,0,31.508-.96,3.643,3.643,0,0,0,1.6-.5c1.483-1.04.569-3.575-1.051-4.386s-3.542-.616-5.319-.967a16.76,16.76,0,0,1-4.978-2.159q-5.406-3.106-10.655-6.477c-2.083-1.338-4.542-2.766-6.888-1.972C671.382,331.531,668.277,335.51,668.319,342.366Z" transform="translate(-217.104 -201.476)" fill="#3f3d56"/>
    <path id="Path_19" data-name="Path 19" d="M549.521,236.786v0c-.016.1-.033.195-.054.291-.026.16-.056.321-.087.481-.291,1.49-.647,2.972-1.058,4.445-1.126,4.07-2.634,8.074-4.131,12.02q-6.024,15.869-12.05,31.74c-1.013,2.665-2.024,5.332-3.176,7.943-.385.87-.781,1.748-1.175,2.634a36.656,36.656,0,0,0-3.218,9.829,20.468,20.468,0,0,0-.143,6.739,6.915,6.915,0,0,0,3.9,5.2c1.027.4,2.5.938,2.217,2.006-.153.586-.819.873-1.417.971a5.451,5.451,0,0,1-4.448-1.281c-1.124-1-1.987-2.548-3.481-2.714a5.886,5.886,0,0,0-2.935.941c-3.866,1.766-8.37.53-12.43-.725.319-1.644,1.97-2.728,3.61-3.057a29.21,29.21,0,0,1,5.008-.141,2.616,2.616,0,0,0,1.522-.392,2.761,2.761,0,0,0,.821-1.4,58.873,58.873,0,0,0,2.4-9.8c.539-3.479.765-7.011,1.534-10.448.6-2.681,1.522-5.278,2.315-7.91a167.518,167.518,0,0,0,3.772-16.458,58.151,58.151,0,0,0,1.063-6.983c.134-1.947.07-3.9.258-5.843a45.39,45.39,0,0,1,1.574-7.452q1.077-3.987,2.151-7.969c1.063-3.929,2.2-8.011,4.9-11.065a10.408,10.408,0,0,1,7.476-3.57,7.363,7.363,0,0,1,1.588.171c.087.021.174.042.26.066a6.436,6.436,0,0,1,1.621.671c.83-.528,1.253-.343,1.8.471a5.2,5.2,0,0,1,.657,2.829,39.085,39.085,0,0,1-.638,7.764Z" transform="translate(-175.751 -174.919)" fill="#fbbebe"/>
    <path id="Path_20" data-name="Path 20" d="M563.543,239.8l-.035.035-.19.19-1.886,1.884-.924-3.882-3.169-13.31a7.37,7.37,0,0,1,1.588.171,2.449,2.449,0,0,1,.11-.448l.15.514,1.074,3.655,2.034,6.939.335,1.142v0Z" transform="translate(-188.859 -174.825)" fill="#f7b800"/>
    <path id="Path_21" data-name="Path 21" d="M571.462,184.884a9.379,9.379,0,0,1-2.759,6.632,9.165,9.165,0,0,1-1.014.877,9.34,9.34,0,0,1-5.618,1.882H550.818a9.386,9.386,0,1,1,0-18.771h11.254A9.415,9.415,0,0,1,571.462,184.884Z" transform="translate(-184.811 -162.369)" fill="#2f2e41"/>
    <circle id="Ellipse_9" data-name="Ellipse 9" cx="9.618" cy="9.618" r="9.618" transform="translate(387.585 3.988)" fill="#2f2e41"/>
    <path id="Path_22" data-name="Path 22" d="M595.434,163.234c-.118,0-.235,0-.352.009a9.615,9.615,0,0,1,0,19.217c.117,0,.234.009.352.009a9.618,9.618,0,1,0,0-19.235Z" transform="translate(-198.466 -159.246)" opacity="0.1"/>
    <path id="Path_23" data-name="Path 23" d="M530.911,163.234c.118,0,.235,0,.352.009a9.615,9.615,0,0,0,0,19.217c-.117,0-.234.009-.352.009a9.618,9.618,0,0,1,0-19.235Z" transform="translate(-179.685 -159.246)" opacity="0.1"/>
    <path id="Path_24" data-name="Path 24" d="M568.977,198.159a9.34,9.34,0,0,1-5.618,1.882H552.1a9.34,9.34,0,0,1-5.618-1.882Z" transform="translate(-186.098 -168.135)" opacity="0.1"/>
    <path id="Path_25" data-name="Path 25" d="M674.14,290.272s2.425,6.986,4.644,5.126l-1.769-9.132Z" transform="translate(-218.588 -190.56)" fill="#fbbebe"/>
    <path id="Path_26" data-name="Path 26" d="M1066.431,567.158A15.515,15.515,0,1,0,1068.5,537.4l.388,7.986-3.778-6.844a15.456,15.456,0,0,0-7.964,8.739,15.215,15.215,0,0,0-.892,4.2A15.512,15.512,0,0,0,1066.431,567.158Z" transform="translate(-315.833 -254.393)" fill="#57b894"/>
    <path id="Path_27" data-name="Path 27" d="M1094,655.227c-1.334-6.792,4.445-12.812,10.154-16.726s12.379-7.759,14.326-14.4c2.8-9.545-5.539-18.286-12.029-25.825a93.411,93.411,0,0,1-12.318-18.307,25.2,25.2,0,0,1-2.946-8.324c-.512-4.231.848-8.441,2.217-12.477q6.843-20.167,14.633-40" transform="translate(-324.708 -249.84)" fill="none" stroke="#3f3d56" stroke-miterlimit="10" stroke-width="1"/>
    <path id="Path_28" data-name="Path 28" d="M1067.281,564.4a15.515,15.515,0,1,0,2.066-29.756l.388,7.986-3.778-6.844a15.458,15.458,0,0,0-7.964,8.739,15.217,15.217,0,0,0-.893,4.2A15.513,15.513,0,0,0,1067.281,564.4Z" transform="translate(-316.049 -253.691)" fill="none" stroke="#3f3d56" stroke-miterlimit="10" stroke-width="1"/>
    <path id="Path_29" data-name="Path 29" d="M1092.132,511.984a15.5,15.5,0,0,1,11.167-9.839l1.277,7.592,2.368-7.973a15.513,15.513,0,1,1-14.813,10.22Z" transform="translate(-324.739 -245.409)" fill="#57b894"/>
    <path id="Path_30" data-name="Path 30" d="M1093.272,508.306a15.5,15.5,0,0,1,11.167-9.839l1.277,7.592,2.369-7.973a15.513,15.513,0,1,1-14.813,10.22Z" transform="translate(-325.028 -244.473)" fill="none" stroke="#3f3d56" stroke-miterlimit="10" stroke-width="1"/>
    <path id="Path_31" data-name="Path 31" d="M1104.548,615.211a15.513,15.513,0,0,0,13.731-27.6l-1.82,6.127-1.29-7.681a.279.279,0,0,0-.04-.015,15.514,15.514,0,1,0-10.581,29.169Z" transform="translate(-325.532 -266.622)" fill="#57b894"/>
    <path id="Path_32" data-name="Path 32" d="M1105.548,611.486a15.513,15.513,0,0,0,13.731-27.6l-1.82,6.127-1.291-7.681a.249.249,0,0,0-.04-.015,15.514,15.514,0,1,0-10.581,29.169Z" transform="translate(-325.787 -265.674)" fill="none" stroke="#3f3d56" stroke-miterlimit="10" stroke-width="1"/>
    <path id="Path_33" data-name="Path 33" d="M1086.3,653.84a15.507,15.507,0,1,0,2.99-12.149l6.913,10.4-9.445-5.522A15.372,15.372,0,0,0,1086.3,653.84Z" transform="translate(-323.43 -279.485)" fill="#57b894"/>
    <path id="Path_34" data-name="Path 34" d="M1087.149,651.083a15.507,15.507,0,1,0,2.99-12.149l6.913,10.4-9.445-5.522A15.371,15.371,0,0,0,1087.149,651.083Z" transform="translate(-323.647 -278.783)" fill="none" stroke="#3f3d56" stroke-miterlimit="10" stroke-width="1"/>
    <path id="Path_35" data-name="Path 35" d="M69.769,621.381a10.194,10.194,0,1,0,1.358-19.55l.255,5.247-2.482-4.5a10.155,10.155,0,0,0-5.233,5.742,10,10,0,0,0-.586,2.758A10.192,10.192,0,0,0,69.769,621.381Z" transform="translate(-63.054 -270.821)" fill="#57b894"/>
    <path id="Path_36" data-name="Path 36" d="M87.882,679.244c-.876-4.462,2.921-8.418,6.671-10.989s8.133-5.1,9.413-9.461c1.839-6.271-3.639-12.015-7.9-16.967A61.369,61.369,0,0,1,87.97,629.8a16.557,16.557,0,0,1-1.936-5.469c-.336-2.78.557-5.546,1.457-8.2q4.5-13.25,9.614-26.277" transform="translate(-68.884 -267.83)" fill="none" stroke="#3f3d56" stroke-miterlimit="10" stroke-width="1"/>
    <path id="Path_37" data-name="Path 37" d="M70.332,619.569a10.194,10.194,0,1,0,1.358-19.55l.255,5.247-2.482-4.5a10.155,10.155,0,0,0-5.233,5.742,10,10,0,0,0-.586,2.758A10.192,10.192,0,0,0,70.332,619.569Z" transform="translate(-63.197 -270.36)" fill="none" stroke="#3f3d56" stroke-miterlimit="10" stroke-width="1"/>
    <path id="Path_38" data-name="Path 38" d="M86.657,585.13a10.182,10.182,0,0,1,7.337-6.464l.839,4.988,1.556-5.239a10.193,10.193,0,1,1-9.732,6.715Z" transform="translate(-68.906 -264.918)" fill="#57b894"/>
    <path id="Path_39" data-name="Path 39" d="M87.408,582.715a10.182,10.182,0,0,1,7.337-6.464l.839,4.988L97.141,576a10.193,10.193,0,1,1-9.732,6.715Z" transform="translate(-69.097 -264.304)" fill="none" stroke="#3f3d56" stroke-miterlimit="10" stroke-width="1"/>
    <path id="Path_40" data-name="Path 40" d="M94.817,652.953a10.193,10.193,0,0,0,9.021-18.133l-1.2,4.026L101.8,633.8l-.026-.01a10.193,10.193,0,1,0-6.952,19.164Z" transform="translate(-69.428 -278.856)" fill="#57b894"/>
    <path id="Path_41" data-name="Path 41" d="M95.468,650.506a10.193,10.193,0,0,0,9.021-18.133l-1.2,4.026-.848-5.047-.026-.01a10.193,10.193,0,1,0-6.952,19.164Z" transform="translate(-69.593 -278.233)" fill="none" stroke="#3f3d56" stroke-miterlimit="10" stroke-width="1"/>
    <path id="Path_42" data-name="Path 42" d="M82.823,678.333a10.188,10.188,0,1,0,1.964-7.982l4.542,6.836-6.206-3.628A10.1,10.1,0,0,0,82.823,678.333Z" transform="translate(-68.046 -287.307)" fill="#57b894"/>
    <path id="Path_43" data-name="Path 43" d="M83.386,676.521a10.188,10.188,0,1,0,1.964-7.982l4.542,6.836-6.206-3.628A10.1,10.1,0,0,0,83.386,676.521Z" transform="translate(-68.189 -286.846)" fill="none" stroke="#3f3d56" stroke-miterlimit="10" stroke-width="1"/>
    <ellipse id="Ellipse_10" data-name="Ellipse 10" cx="12.673" cy="16.401" rx="12.673" ry="16.401" transform="translate(345.862 221.494)" fill="#2f2e41"/>
    <ellipse id="Ellipse_11" data-name="Ellipse 11" cx="12.673" cy="16.401" rx="12.673" ry="16.401" transform="translate(414.819 221.867)" fill="#2f2e41"/>
    <path id="Path_44" data-name="Path 44" d="M607.72,537.919c0,7.41-10.347,13.419-23.11,13.419s-23.11-6.009-23.11-13.419c0-6.419,7.76-11.786,18.13-13.1a37.347,37.347,0,0,1,4.98-.321,37.794,37.794,0,0,1,8.3.895C601.569,527.325,607.72,532.208,607.72,537.919Z" transform="translate(-189.919 -251.196)" fill="#2f2e41"/>
    <ellipse id="Ellipse_12" data-name="Ellipse 12" cx="12.673" cy="16.401" rx="12.673" ry="16.401" transform="translate(348.844 217.766)" fill="none" stroke="#3f3d56" stroke-miterlimit="10" stroke-width="1"/>
    <ellipse id="Ellipse_13" data-name="Ellipse 13" cx="12.673" cy="16.401" rx="12.673" ry="16.401" transform="translate(417.801 218.139)" fill="none" stroke="#3f3d56" stroke-miterlimit="10" stroke-width="1"/>
    <ellipse id="Ellipse_14" data-name="Ellipse 14" cx="23.11" cy="13.419" rx="23.11" ry="13.419" transform="translate(374.563 269.577)" fill="none" stroke="#3f3d56" stroke-miterlimit="10" stroke-width="1"/>
    <path id="Path_45" data-name="Path 45" d="M599.164,526.385a3.68,3.68,0,0,1-.984,2.529,3.235,3.235,0,0,1-2.371,1.05h-7.455A3.477,3.477,0,0,1,585,526.385a3.656,3.656,0,0,1,.611-2.044,35.058,35.058,0,0,1,4.98-.342,35.535,35.535,0,0,1,8.3.954A3.777,3.777,0,0,1,599.164,526.385Z" transform="translate(-195.899 -251.068)" fill="#fff"/>
    <circle id="Ellipse_15" data-name="Ellipse 15" cx="3.727" cy="3.727" r="3.727" transform="translate(357.79 225.967)" fill="#fff"/>
    <circle id="Ellipse_16" data-name="Ellipse 16" cx="3.727" cy="3.727" r="3.727" transform="translate(427.119 225.967)" fill="#fff"/>
    <circle id="Ellipse_17" data-name="Ellipse 17" cx="3.727" cy="3.727" r="3.727" transform="translate(430.847 261.004)" fill="#f7b800" opacity="0.3"/>
    <circle id="Ellipse_18" data-name="Ellipse 18" cx="3.727" cy="3.727" r="3.727" transform="translate(339.898 261.004)" fill="#f7b800" opacity="0.3"/>
  </g>
</svg>
