<svg xmlns="http://www.w3.org/2000/svg" xmlns:xlink="http://www.w3.org/1999/xlink" width="190.315" height="136.508" viewBox="0 0 190.315 136.508">
  <defs>
    <linearGradient id="linear-gradient" x1="0.661" y1="0.48" x2="0.367" y2="0.802" gradientUnits="objectBoundingBox">
      <stop offset="0" stop-color="#d4a397"/>
      <stop offset="1" stop-color="#fff"/>
    </linearGradient>
    <linearGradient id="linear-gradient-2" x1="0.661" y1="0.48" x2="0.367" y2="0.802" xlink:href="#linear-gradient"/>
    <linearGradient id="linear-gradient-3" x1="0.647" y1="-0.096" x2="0.422" y2="0.568" xlink:href="#linear-gradient"/>
  </defs>
  <g id="Fast_food_Isometric" data-name="Fast food_Isometric" transform="translate(-18.438 -12.08)">
    <g id="Layer_2" data-name="Layer 2" transform="translate(18.438 12.08)">
      <path id="Path_447" data-name="Path 447" d="M110.776,170.258,22.139,117.878c-2.821-1.583-5.241-4.188-2.492-5.889L108.6,60.718c1.336-.827,3.36-1.367,4.717-.581l93.046,54c2.821,1.639,3.33,6.217.514,7.857l-84.424,48.183a11.787,11.787,0,0,1-11.68.082Z" transform="translate(-18.438 -35.258)" fill="#ffa87d"/>
      <path id="Path_448" data-name="Path 448" d="M173.614,101.18,148.78,114.848l12.548,7.276,11.1-6.038" transform="translate(-81.805 -55.397)" fill="url(#linear-gradient)"/>
      <path id="Path_449" data-name="Path 449" d="M70.154,154.28,45.32,167.953l12.548,7.276,11.1-6.038" transform="translate(-31.507 -81.212)" fill="url(#linear-gradient-2)"/>
      <path id="Path_450" data-name="Path 450" d="M127.616,185.77l-23.606,11.6L156.339,227.7l46.3-25.173" transform="translate(-60.04 -96.521)" fill="url(#linear-gradient-3)"/>
      <path id="Path_451" data-name="Path 451" d="M133,110.415s9.3-30.378,8.9-30.517l-2.821-1.028L130.5,110.034Z" transform="translate(-72.918 -44.551)" fill="#e29e14"/>
      <path id="Path_452" data-name="Path 452" d="M126.3,113.554s8.129-22.969,7.975-23.323a15.1,15.1,0,0,0-2.569-1.711L124,113.061" transform="translate(-69.758 -49.242)" fill="#e29e14"/>
      <path id="Path_453" data-name="Path 453" d="M130.647,112.1s9.3-30.378,8.9-30.517l-2.821-1.028-8.571,31.159Z" transform="translate(-71.781 -45.372)" fill="#fbc144"/>
      <path id="Path_454" data-name="Path 454" d="M121.951,114.5s8.129-22.969,7.954-23.323a15.8,15.8,0,0,0-2.528-1.711l-7.708,24.541" transform="translate(-67.653 -49.704)" fill="#fbc144"/>
      <path id="Path_455" data-name="Path 455" d="M85.239,98.5S83.7,66.77,83.276,66.77h-3l2.482,32.218Z" transform="translate(-48.503 -38.668)" fill="#e29e14"/>
      <path id="Path_456" data-name="Path 456" d="M79.246,103.974s-.134-24.361-.421-24.639a15.615,15.615,0,0,0-2.955-.755l1.064,25.692" transform="translate(-46.359 -44.41)" fill="#e29e14"/>
      <path id="Path_457" data-name="Path 457" d="M83.614,100.88s-1.542-31.73-1.963-31.73h-3l2.482,32.218Z" transform="translate(-47.711 -39.825)" fill="#fbc144"/>
      <path id="Path_458" data-name="Path 458" d="M75.456,106.378s-.134-24.351-.421-24.639A14.711,14.711,0,0,0,72.08,81l1.064,25.692" transform="translate(-44.517 -45.586)" fill="#fbc144"/>
      <path id="Path_459" data-name="Path 459" d="M65.785,101.8c-.457-2.5-5.9-29.8-5.9-29.8l-3.376.247,7.029,30.26Z" transform="translate(-36.947 -41.211)" fill="#e29e14"/>
      <path id="Path_460" data-name="Path 460" d="M60.741,100.439s-7.05-23.323-7.4-23.488a17.316,17.316,0,0,0-3.047.118l8.319,24.341" transform="translate(-33.923 -43.593)" fill="#e29e14"/>
      <path id="Path_461" data-name="Path 461" d="M67.54,99.459c-.462-2.518-5.9-29.839-5.9-29.839l-3.376.247,7.029,30.265Z" transform="translate(-37.798 -40.054)" fill="#fbc144"/>
      <path id="Path_462" data-name="Path 462" d="M57.791,103.766s-7.029-23.318-7.4-23.5a15.456,15.456,0,0,0-3.047.118l8.319,24.341" transform="translate(-32.489 -45.199)" fill="#fbc144"/>
      <path id="Path_463" data-name="Path 463" d="M113.838,112.78c.272-2.544,2.821-30.286,2.821-30.286l-3.309-.725-1.86,31.01Z" transform="translate(-63.676 -45.961)" fill="#e29e14"/>
      <path id="Path_464" data-name="Path 464" d="M95.8,107.98s-1.542-31.73-1.963-31.73h-3l2.482,32.243Z" transform="translate(-53.637 -43.277)" fill="#e29e14"/>
      <path id="Path_465" data-name="Path 465" d="M71.031,110.371l-.617-28.22L67.29,80.81l1.47,29.561" transform="translate(-42.188 -45.494)" fill="#e29e14"/>
      <path id="Path_466" data-name="Path 466" d="M125.788,116.755s3.083-24.15,2.831-24.479a14.708,14.708,0,0,0-2.831-1.146l-2.338,25.625" transform="translate(-69.491 -50.511)" fill="#e29e14"/>
      <path id="Path_467" data-name="Path 467" d="M111.176,112.064s-.134-24.361-.421-24.639a15.614,15.614,0,0,0-2.955-.755l1.064,25.692" transform="translate(-61.883 -48.343)" fill="#e29e14"/>
      <path id="Path_468" data-name="Path 468" d="M89.806,113.464s-.134-24.361-.421-24.639a15.614,15.614,0,0,0-2.955-.755l1.064,25.692" transform="translate(-51.493 -49.023)" fill="#e29e14"/>
      <path id="Path_469" data-name="Path 469" d="M117.638,112.09c.272-2.543,2.821-30.286,2.821-30.286l-3.309-.725-1.86,31.01Z" transform="translate(-65.524 -45.625)" fill="#fbc144"/>
      <path id="Path_470" data-name="Path 470" d="M94.179,110.36s-1.542-31.73-1.963-31.73h-3l2.456,32.218Z" transform="translate(-52.85 -44.434)" fill="#fbc144"/>
      <path id="Path_471" data-name="Path 471" d="M75.821,105.571,75.2,77.356,72.08,76.01l1.47,29.561" transform="translate(-44.517 -43.16)" fill="#fbc144"/>
      <path id="Path_472" data-name="Path 472" d="M125.59,113.825c.329-.622,6.089-24.495,6.089-24.495l2.1,1.86-5.683,22.635" transform="translate(-70.531 -49.636)" fill="#fbc144"/>
      <path id="Path_473" data-name="Path 473" d="M122.008,119.125s3.083-24.15,2.831-24.479a14.594,14.594,0,0,0-2.831-1.136l-2.338,25.615" transform="translate(-67.653 -51.668)" fill="#fbc144"/>
      <path id="Path_474" data-name="Path 474" d="M107.386,114.449s-.134-24.361-.421-24.639A15.638,15.638,0,0,0,104,89.06l1.064,25.692" transform="translate(-60.035 -49.505)" fill="#fbc144"/>
      <path id="Path_475" data-name="Path 475" d="M86.026,115.844s-.113-24.366-.421-24.639a16.436,16.436,0,0,0-2.955-.755l1.064,25.692" transform="translate(-49.656 -50.18)" fill="#fbc144"/>
      <path id="Path_476" data-name="Path 476" d="M103.1,105.17s-1.542-31.73-1.963-31.73h-3l2.482,32.218Z" transform="translate(-57.186 -41.911)" fill="#e29e14"/>
      <path id="Path_477" data-name="Path 477" d="M97.106,110.664s-.134-24.361-.421-24.639a15.615,15.615,0,0,0-2.955-.755l1.064,25.692" transform="translate(-55.042 -47.662)" fill="#e29e14"/>
      <path id="Path_478" data-name="Path 478" d="M101.479,107.55s-1.542-31.73-1.963-31.73h-3L99,108.038Z" transform="translate(-56.399 -43.068)" fill="#fbc144"/>
      <path id="Path_479" data-name="Path 479" d="M93.326,113.044s-.134-24.361-.421-24.639a15.616,15.616,0,0,0-2.955-.755l1.064,25.692" transform="translate(-53.205 -48.819)" fill="#fbc144"/>
      <path id="Path_480" data-name="Path 480" d="M104.533,97.2a20.89,20.89,0,0,0-2.569,1.454s-5.7,17.948-14.187,18.19-13.7-8.365-14.064-8.365-4.368,1.089-4.368,1.089l-12.466-5.94,6.428,34.427,9.213,4.486s22.069-9.095,23.282-10.066S104.533,97.2,104.533,97.2Z" transform="translate(-37.127 -53.462)" fill="#f74f3d"/>
      <ellipse id="Ellipse_64" data-name="Ellipse 64" cx="44.971" cy="23.138" rx="44.971" ry="23.138" transform="translate(68.136 65.401)" fill="#68e1fd"/>
      <ellipse id="Ellipse_65" data-name="Ellipse 65" cx="44.971" cy="23.138" rx="44.971" ry="23.138" transform="translate(68.136 65.401)" fill="#093e3e" opacity="0.29"/>
      <ellipse id="Ellipse_66" data-name="Ellipse 66" cx="44.971" cy="23.138" rx="44.971" ry="23.138" transform="translate(68.136 62.704)" fill="#68e1fd"/>
      <ellipse id="Ellipse_67" data-name="Ellipse 67" cx="38.723" cy="18.061" rx="38.723" ry="18.061" transform="translate(74.728 68.315)" fill="#093e3e" opacity="0.29"/>
      <path id="Path_481" data-name="Path 481" d="M158.49,61.57l4.352,30.471a12.548,12.548,0,0,0,9,3.915c5.652,0,8.273-3.191,8.417-4.5s3.772-29.89,3.772-29.89Z" transform="translate(-86.526 -36.14)" fill="#68e1fd"/>
      <path id="Path_482" data-name="Path 482" d="M164.4,61.6H158.49l4.373,30.471a12.645,12.645,0,0,0,5.652,3.432C166.547,84.271,164.821,73,164.4,61.6Z" transform="translate(-86.526 -36.155)" opacity="0.33"/>
      <path id="Path_483" data-name="Path 483" d="M157.36,54.49v2.23l26.694.38V54.49" transform="translate(-85.977 -32.698)" fill="#ebeae8"/>
      <ellipse id="Ellipse_68" data-name="Ellipse 68" cx="13.35" cy="8.864" rx="13.35" ry="8.864" transform="translate(71.378 15.158)" fill="#ebeae8"/>
      <ellipse id="Ellipse_69" data-name="Ellipse 69" cx="13.35" cy="8.864" rx="13.35" ry="8.864" transform="translate(71.378 12.928)" fill="#fffff2"/>
      <ellipse id="Ellipse_70" data-name="Ellipse 70" cx="10.38" cy="6.171" rx="10.38" ry="6.171" transform="translate(74.348 15.158)" fill="#ebeae8"/>
      <ellipse id="Ellipse_71" data-name="Ellipse 71" cx="8.242" cy="4.902" rx="8.242" ry="4.902" transform="translate(76.486 16.427)" fill="#fffff2"/>
      <path id="Path_484" data-name="Path 484" d="M183.572,52.6c-.555-.211-1.11-.432-1.66-.658.437-.226.868-.452,1.305-.673.2-.1.062-.426-.139-.324-.514.267-1.069.545-1.6.822q-1.028-.411-2.025-.843a.175.175,0,1,0-.134.324c.581.247,1.166.514,1.747.73q-.992.514-1.973,1.069c-.2.108-.057.432.139.324q1.125-.622,2.261-1.213.971.391,1.942.766a.176.176,0,1,0,.139-.324Z" transform="translate(-96.496 -30.96)" fill="#606060"/>
      <path id="Path_485" data-name="Path 485" d="M202.509,14.608l-12.63-2.528c-3.438.134-4.45,3.6-4.45,3.6l-3.638,16.828c-.411.211,2.369.94,2.369.94s2.888-15.477,3.694-17.029a3.345,3.345,0,0,1,2.333-1.809s8.278,1.68,11.392,2.394A2.569,2.569,0,0,1,202.509,14.608Z" transform="translate(-97.834 -12.08)" fill="#ddd3c3"/>
      <path id="Path_486" data-name="Path 486" d="M221.2,17a1.2,1.2,0,0,1,.658,1.408c-.149,1.136-.848,1.321-1.583,1.028C220.271,19.41,219.778,17.514,221.2,17Z" transform="translate(-116.521 -14.472)" fill="#968d7e"/>
      <ellipse id="Ellipse_72" data-name="Ellipse 72" cx="28.903" cy="17.023" rx="28.903" ry="17.023" transform="translate(83.875 67.046)" fill="#f48f3b"/>
      <path id="Path_487" data-name="Path 487" d="M184.48,170.091c.231.313,5.272,12.471,26.776,12.512,25.291.051,27.429-9.634,27.891-11.423a16.059,16.059,0,0,0,0-5.6c-.154.051-53.27.391-53.953,1.166S184.48,170.091,184.48,170.091Z" transform="translate(-99.161 -86.705)" fill="#67352a"/>
      <path id="Path_488" data-name="Path 488" d="M256.526,136.891c-.2-.514-.385-1.028-.576-1.542l3.458-.159a31.067,31.067,0,0,0,3.021,6.048,72.154,72.154,0,0,0,7.934,12.8,28.06,28.06,0,0,0,2.019,2.605c1.706,3.73,6.459,6.587,1.295,6.721a12.353,12.353,0,0,1-6.68-2q-2.5-5.19-4.789-10.467C260.446,146.176,258.509,141.526,256.526,136.891Z" transform="translate(-133.907 -71.931)" fill="#99ce45"/>
      <path id="Path_489" data-name="Path 489" d="M250,135.682l1.593-.072.7,1.634,9.491,26.144c-.365,3.083,1,8.1-2.276,5.9-2.77-1.855-2.929-5.478-4-6.284q-1.069-3.674-1.917-7.4C252.77,148.918,251.4,142.3,250,135.682Z" transform="translate(-131.015 -72.136)" fill="#99ce45"/>
      <path id="Path_490" data-name="Path 490" d="M244.526,137.016c0-.36-.031-.719-.046-1.079l1.459-.067a.6.6,0,0,0-.242.591l4.188,28.477c-1.768,2.518-1.413,5.169-2.939,1.2-1.064-2.775-1.321-4.65-2.112-5.4q0-11.592-.046-23.184A.658.658,0,0,0,244.526,137.016Z" transform="translate(-128.331 -72.262)" fill="#99ce45"/>
      <path id="Path_491" data-name="Path 491" d="M266.18,134.976l.6-.026a.555.555,0,0,0,.17.848c4.419,2.61,8.221,6.315,12.908,8.34a4.436,4.436,0,0,0,.514,1.089c2.338,3.725,4.178,4.7,1.788,6.849-1.593,1.434-3.859.545-4.871,1.064A106.892,106.892,0,0,1,266.6,136.086Q266.4,135.538,266.18,134.976Z" transform="translate(-138.881 -71.815)" fill="#99ce45"/>
      <path id="Path_492" data-name="Path 492" d="M271.889,134.56s10.606-1.089,11.89,3.741c.627,2.353-.313,3.114-1.166,3.71-4.321-2.415-8.607-4.887-12.9-7.353Z" transform="translate(-140.597 -71.574)" fill="#99ce45"/>
      <path id="Path_493" data-name="Path 493" d="M239.8,136.549l.134-.339h.262l-.231.483A.689.689,0,0,0,239.8,136.549Z" transform="translate(-126.056 -72.427)" fill="#99ce45"/>
      <path id="Path_494" data-name="Path 494" d="M236.552,138.92c.031.514.057.992.1,1.485a91.306,91.306,0,0,1-4.779,23.025c-.853-.057-1.146-.8-1.192-2.544-.082-3.14,3.325-7.471.781-8.129,1.094-2.348,1.629-4.938,2.487-7.379C234.717,143.18,235.6,141.016,236.552,138.92Z" transform="translate(-121.621 -73.745)" fill="#99ce45"/>
      <path id="Path_495" data-name="Path 495" d="M237.056,184.088a.622.622,0,0,0,.1.432l-.514.206c.159-.37.324-.74.478-1.115Z" transform="translate(-124.52 -95.471)" fill="#99ce45"/>
      <path id="Path_496" data-name="Path 496" d="M267.388,135.744a.555.555,0,0,1-.17-.848l1.213-.057c4.291,2.466,8.581,4.938,12.9,7.353-.694.483-1.336.863-1.028,1.891C275.588,142.065,271.812,138.36,267.388,135.744Z" transform="translate(-139.323 -71.761)" fill="#88b72c"/>
      <path id="Path_497" data-name="Path 497" d="M265.7,141.14a31.065,31.065,0,0,1-3.021-6.048l1.8-.082c.144.37.283.735.426,1.1A106.428,106.428,0,0,0,275.6,153.164c-.514.257-.7.863-.334,2.276a6.6,6.6,0,0,0,.4,1.11,28.056,28.056,0,0,1-2.019-2.605A72.156,72.156,0,0,1,265.7,141.14Z" transform="translate(-137.179 -71.844)" fill="#88b72c"/>
      <path id="Path_498" data-name="Path 498" d="M253.06,135.547l1.485-.067c.19.514.38,1.028.576,1.542,1.983,4.625,3.915,9.285,5.652,14q2.3,5.277,4.789,10.467c-.889-.432-1.48-.514-1.989.514a3.989,3.989,0,0,0-.339,1.3l-9.47-26.118Z" transform="translate(-132.502 -72.072)" fill="#88b72c"/>
      <path id="Path_499" data-name="Path 499" d="M247.084,135.812l1.357-.062c1.423,6.608,2.79,13.231,3.6,19.927q.853,3.725,1.917,7.4c-.4-.3-.93-.211-1.773.514a6.9,6.9,0,0,0-1.151,1.285l-4.188-28.487A.6.6,0,0,1,247.084,135.812Z" transform="translate(-129.476 -72.204)" fill="#88b72c"/>
      <path id="Path_500" data-name="Path 500" d="M235.073,136.143h.416l-.134.339a.689.689,0,0,1,.17.134l.231-.483,2-.092a8.426,8.426,0,0,0,.046,1.079.658.658,0,0,1,.252.514q0,11.592.046,23.184c-.54-.514-1.331-.514-2.811.139l-1.028.442a.622.622,0,0,1-.1-.432l.051-.478c-.154.375-.319.745-.478,1.115a4.913,4.913,0,0,1-1.865.437,91.3,91.3,0,0,0,4.779-23.025c-.041-.514-.067-.992-.1-1.485-.956,2.117-1.84,4.265-2.61,6.459-.858,2.441-1.392,5.036-2.487,7.379l-.113-.031C228.573,150.772,235.073,136.143,235.073,136.143Z" transform="translate(-121.612 -72.345)" fill="#88b72c"/>
      <path id="Path_501" data-name="Path 501" d="M187.138,162.01s-1.953,7.266-2.7,11.181a20.826,20.826,0,0,1,7.826-2.949c4.522-.689,31.344,1.4,31.344,1.4s6.68,2.019,8.108,2.867a50.756,50.756,0,0,1,5.2,4.075,76.694,76.694,0,0,0,1.228-9.511c-.046-2.055-.54-7.266-.54-7.266" transform="translate(-99.142 -84.873)" fill="#ffc31a"/>
      <path id="Path_502" data-name="Path 502" d="M204.045,136.618l.93-1.372-3.319-.976a31.068,31.068,0,0,1-4.378,5.138,72.151,72.151,0,0,1-10.791,10.544,28.057,28.057,0,0,1-2.569,2.055c-2.569,3.217-7.846,4.861-2.862,6.217,3.268.889,5.544-.041,6.978-.344q3.659-4.445,7.148-9.023C198.007,144.7,201.013,140.647,204.045,136.618Z" transform="translate(-96.493 -71.484)" fill="#99ce45"/>
      <path id="Path_503" data-name="Path 503" d="M217.093,137.432l-1.542-.452-1.074,1.418-15.451,23.123c-.375,3.083-2.9,7.631.8,6.279,3.134-1.141,4.147-4.625,5.385-5.138q1.911-3.314,3.628-6.731C211.23,149.62,214.138,143.511,217.093,137.432Z" transform="translate(-105.656 -72.802)" fill="#99ce45"/>
      <path id="Path_504" data-name="Path 504" d="M228.789,140.069c.108-.344.2-.689.3-1.028l-1.4-.411a.6.6,0,0,1,.1.632L216.94,165.915c1.115,2.867.144,5.354,2.569,1.86,1.7-2.441,2.389-4.2,3.335-4.743l5.575-22.506a.658.658,0,0,1,.37-.457Z" transform="translate(-114.942 -73.604)" fill="#99ce45"/>
      <path id="Path_505" data-name="Path 505" d="M200.548,133.12l-.575-.17a.555.555,0,0,1-.365.781c-4.917,1.48-9.47,4.178-14.526,5.02a4.44,4.44,0,0,1-.766.93c-3.16,3.083-5.179,3.571-3.371,6.223,1.208,1.773,3.6,1.449,4.476,2.194a107.926,107.926,0,0,0,14.449-14.012C200.1,133.767,200.322,133.443,200.548,133.12Z" transform="translate(-97.111 -70.842)" fill="#99ce45"/>
      <path id="Path_506" data-name="Path 506" d="M199.925,129.768s-10.04-3.6-12.44.8c-1.172,2.138-.442,3.083.252,3.885,4.774-1.31,9.527-2.693,14.28-4.064Z" transform="translate(-100.322 -68.622)" fill="#99ce45"/>
      <path id="Path_507" data-name="Path 507" d="M244.628,140.957a2.752,2.752,0,0,0-.046-.36l-.252-.077c.036.175.072.349.108.514A.688.688,0,0,1,244.628,140.957Z" transform="translate(-128.258 -74.523)" fill="#99ce45"/>
      <path id="Path_508" data-name="Path 508" d="M240.581,142.81c-.149.473-.293.945-.447,1.418a91.3,91.3,0,0,0-.848,23.5c.843.149,1.305-.514,1.762-2.184.827-3.032-1.444-8.047,1.182-8.083a76.556,76.556,0,0,1-.653-7.759C241.346,147.388,241,145.091,240.581,142.81Z" transform="translate(-125.614 -75.636)" fill="#99ce45"/>
      <path id="Path_509" data-name="Path 509" d="M235.645,187.768a.622.622,0,0,1-.2.4l.457.324c-.067-.4-.139-.8-.2-1.2Z" transform="translate(-123.941 -97.26)" fill="#99ce45"/>
      <path id="Path_510" data-name="Path 510" d="M203.646,133.405a.555.555,0,0,0,.365-.781l-1.161-.344c-4.758,1.372-9.511,2.749-14.28,4.064.56.637,1.089,1.156.555,2.081C194.176,137.583,198.729,134.885,203.646,133.405Z" transform="translate(-101.15 -70.517)" fill="#88b72c"/>
      <path id="Path_511" data-name="Path 511" d="M201.954,138.952a31.069,31.069,0,0,0,4.378-5.138l-1.727-.514c-.226.324-.447.647-.678.966a106.674,106.674,0,0,1-14.449,14.012c.426.37.473,1.028-.216,2.292a6.606,6.606,0,0,1-.653.981,28.057,28.057,0,0,0,2.569-2.055A72.154,72.154,0,0,0,201.954,138.952Z" transform="translate(-101.169 -71.013)" fill="#88b72c"/>
      <path id="Path_512" data-name="Path 512" d="M214.979,136.6l-1.423-.421-.93,1.372c-3.032,4.029-6.017,8.083-8.848,12.245q-3.489,4.578-7.148,9.023c.966-.206,1.542-.128,1.809.981a3.988,3.988,0,0,1,0,1.346l15.451-23.123Z" transform="translate(-105.068 -72.413)" fill="#88b72c"/>
      <path id="Path_513" data-name="Path 513" d="M225.4,138.245l-1.305-.385c-2.955,6.079-5.863,12.188-8.221,18.5q-1.716,3.417-3.628,6.731c.462-.2.956,0,1.6.92a6.9,6.9,0,0,1,.812,1.542l10.816-26.673a.6.6,0,0,0-.077-.632Z" transform="translate(-112.662 -73.229)" fill="#88b72c"/>
      <path id="Path_514" data-name="Path 514" d="M237.243,140.18l-.4-.118a2.754,2.754,0,0,0,.046.36.688.688,0,0,0-.2.087c-.036-.175-.072-.349-.108-.514l-1.927-.565c-.1.344-.2.694-.3,1.028a.658.658,0,0,0-.37.452l-5.575,22.506c.647-.37,1.408-.17,2.7.8.329.252.632.473.915.678a.622.622,0,0,0,.2-.4l.062-.478c.062.4.134.8.2,1.2a4.912,4.912,0,0,0,1.706.868,91.3,91.3,0,0,1,.848-23.5c.159-.473.3-.945.447-1.418.421,2.281.766,4.578.992,6.9.252,2.569.154,5.221.653,7.759h.118C240.064,155.94,237.243,140.18,237.243,140.18Z" transform="translate(-120.518 -73.993)" fill="#88b72c"/>
      <path id="Path_515" data-name="Path 515" d="M199.67,172.16v3.114s3.376,6.166,14.557,1.865l-.319-1.434" transform="translate(-106.546 -89.905)" fill="#217738"/>
      <path id="Path_516" data-name="Path 516" d="M199.67,172.16s0,3.227,5.442,4.686,8.8-1.141,8.8-1.141Z" transform="translate(-106.546 -89.905)" fill="#e0ffb2"/>
      <path id="Path_517" data-name="Path 517" d="M179,161.81v2.569s.041,4.666,11,4.542v-1.629s-5.03-.421-7.245-1.459C180.161,164.646,179.118,163.018,179,161.81Z" transform="translate(-96.497 -84.873)" fill="#c61424"/>
      <ellipse id="Ellipse_73" data-name="Ellipse 73" cx="9.115" cy="5.375" rx="9.115" ry="5.375" transform="translate(82.498 71.716)" fill="#ff2624"/>
      <path id="Path_518" data-name="Path 518" d="M182.792,156.46a3.333,3.333,0,0,0-1.542,2.569c0,1.629.735,2.4,1.542,2.4s3.052-2.893,3.813-2.235-2.492,2.913-1.85,3.736,6.423,1.5,7.476.673,2.287-4.625-.791-5.688A44.285,44.285,0,0,0,182.792,156.46Z" transform="translate(-97.591 -82.272)" fill="#c61424"/>
      <path id="Path_519" data-name="Path 519" d="M281.219,163.22v2.569s-.827,5.354-13.719,3.6l.694-1.172s7.055.072,9.275-.966C280.053,166.062,281.117,164.428,281.219,163.22Z" transform="translate(-139.523 -85.558)" fill="#c61424"/>
      <ellipse id="Ellipse_74" data-name="Ellipse 74" cx="9.115" cy="5.375" rx="9.115" ry="5.375" transform="translate(123.466 72.446)" fill="#ff2624"/>
      <path id="Path_520" data-name="Path 520" d="M278.914,157.88a3.333,3.333,0,0,1,1.542,2.569c0,1.629-.735,2.4-1.542,2.4s-3.052-2.893-3.813-2.235,2.492,2.913,1.85,3.736-6.423,1.5-7.476.673-2.287-4.625.791-5.688A44.287,44.287,0,0,1,278.914,157.88Z" transform="translate(-139.92 -82.962)" fill="#c61424"/>
      <path id="Path_521" data-name="Path 521" d="M265.147,172.16v3.114s-3.376,6.166-14.557,1.865l.319-1.434" transform="translate(-131.302 -89.905)" fill="#217738"/>
      <path id="Path_522" data-name="Path 522" d="M265.448,172.16s0,3.227-5.442,4.686-8.8-1.141-8.8-1.141Z" transform="translate(-131.603 -89.905)" fill="#e0ffb2"/>
      <path id="Path_523" data-name="Path 523" d="M217.45,180.38v2.811s2.055,3.515,10.374,3.515,10.2-3.628,10.2-3.736V180.4" transform="translate(-115.19 -93.901)" fill="#c61424"/>
      <ellipse id="Ellipse_75" data-name="Ellipse 75" cx="10.287" cy="4.804" rx="10.287" ry="4.804" transform="translate(102.26 81.968)" fill="#ff2624"/>
      <path id="Path_524" data-name="Path 524" d="M219.8,180.38s2.055,3.047,4.625,3.16,3.145-3.083,4.111-2.256.673,2.98,2.739,2.759,6.485-1.994,6.613-3.345" transform="translate(-116.333 -93.901)" fill="#c61424"/>
      <ellipse id="Ellipse_76" data-name="Ellipse 76" cx="29.366" cy="18.981" rx="29.366" ry="18.981" transform="translate(83.864 50.253)" fill="#f48f3b"/>
      <path id="Path_525" data-name="Path 525" d="M231.16,152.154c-10.1,4.409-24.012,4.255-33.852-.75-5.174-2.631-10.118-6.757-12.332-12.142a12.548,12.548,0,0,1-.036-9.552,13.9,13.9,0,0,0-3.34,8.787c0,10.482,13.149,18.981,29.366,18.981,8.221,0,15.636-2.184,20.97-5.7C231.694,151.908,231.432,152.036,231.16,152.154Z" transform="translate(-97.761 -69.267)" fill="#e27a2d"/>
      <ellipse id="Ellipse_77" data-name="Ellipse 77" cx="1.464" cy="0.519" rx="1.464" ry="0.519" transform="translate(109.032 58.429)" fill="#ffe5d2"/>
      <ellipse id="Ellipse_78" data-name="Ellipse 78" cx="1.464" cy="0.519" rx="1.464" ry="0.519" transform="translate(115.029 63.248)" fill="#ffe5d2"/>
      <ellipse id="Ellipse_79" data-name="Ellipse 79" cx="1.464" cy="0.519" rx="1.464" ry="0.519" transform="translate(98.94 59.246)" fill="#ffe5d2"/>
      <ellipse id="Ellipse_80" data-name="Ellipse 80" cx="1.464" cy="0.519" rx="1.464" ry="0.519" transform="translate(104.767 64.656)" fill="#ffe5d2"/>
      <ellipse id="Ellipse_81" data-name="Ellipse 81" cx="1.464" cy="0.519" rx="1.464" ry="0.519" transform="translate(124.036 57.118)" fill="#ffe5d2"/>
      <ellipse id="Ellipse_82" data-name="Ellipse 82" cx="1.464" cy="0.519" rx="1.464" ry="0.519" transform="translate(127.643 66.136)" fill="#ffe5d2"/>
      <ellipse id="Ellipse_83" data-name="Ellipse 83" cx="1.464" cy="0.519" rx="1.464" ry="0.519" transform="translate(117.505 71.809)" fill="#ffe5d2"/>
      <ellipse id="Ellipse_84" data-name="Ellipse 84" cx="1.464" cy="0.519" rx="1.464" ry="0.519" transform="translate(103.699 70.884)" fill="#ffe5d2"/>
    </g>
  </g>
</svg>
