<svg xmlns="http://www.w3.org/2000/svg" width="148.583" height="106.247" viewBox="0 0 148.583 106.247">
  <g id="Scooter_Two_Color" data-name="Scooter_Two Color" transform="translate(-61.49 -43.655)">
    <path id="Path_408" data-name="Path 408" d="M257.7,161.44s19.4,2.575,20.133-7.916-3.188-11.81,5.15-15.317,2.452,8.249,9.318,6.905-2.452-12.364,3.678-14.944,16.675,1.834,13.487,10.417-11.771,6.753-12.261,12.938,10.79,12.315.981,17.1a10.964,10.964,0,0,1-12.227-1.447,11.589,11.589,0,0,0-9.52-2.339,22.07,22.07,0,0,1-14.782-2.006Z" transform="translate(-99.98 -43.711)" fill="#e6e6e6" opacity="0.54"/>
    <path id="Path_409" data-name="Path 409" d="M169.231,207.033a2.857,2.857,0,0,1-1.584,2.354c-1.452.544-1.432,2.114,0,2.114s4.414-2.688,4.414-2.688l-.7-2.124Z" transform="translate(-53.542 -83.076)" fill="#68e1fd"/>
    <path id="Path_410" data-name="Path 410" d="M169.231,207.033a2.857,2.857,0,0,1-1.584,2.354c-1.452.544-1.432,2.114,0,2.114s4.414-2.688,4.414-2.688l-.7-2.124Z" transform="translate(-53.542 -83.076)" opacity="0.08"/>
    <path id="Path_411" data-name="Path 411" d="M165.227,136.846s-5.522-2.153-6.067,0,6.891,3.129,6.891,3.129Z" transform="translate(-49.754 -46.998)" fill="#f4a28c"/>
    <path id="Path_412" data-name="Path 412" d="M165.227,136.846s-5.522-2.153-6.067,0,6.891,3.129,6.891,3.129Z" transform="translate(-49.754 -46.998)" opacity="0.08"/>
    <ellipse id="Ellipse_55" data-name="Ellipse 55" cx="65.381" cy="8.274" rx="65.381" ry="8.274" transform="translate(61.49 133.355)" fill="#e6e6e6" opacity="0.45"/>
    <path id="Path_413" data-name="Path 413" d="M149.632,62.091A22.472,22.472,0,0,0,150,68.114a1.824,1.824,0,0,0,2.232,1.29,4.036,4.036,0,0,0,3.114-3.075l1.045-3.188a3.266,3.266,0,0,0-1.471-3.467C152.859,58.227,149.686,59.875,149.632,62.091Z" transform="translate(-44.885 -7.884)" fill="#f4a28c"/>
    <path id="Path_414" data-name="Path 414" d="M156.53,66.86l10.795,5.022-3.193,5.753-6.41-5.812Z" transform="translate(-48.428 -11.824)" fill="#f4a28c"/>
    <path id="Path_415" data-name="Path 415" d="M148.226,59.851a14.139,14.139,0,0,0,3.35-.3,3.026,3.026,0,0,0,.039,3.325,2.452,2.452,0,0,0,3,.947l-.123-4.684a3.7,3.7,0,0,0-1.913-3.276,13.574,13.574,0,0,0-1.569-.745c-1.354-.52-3.311.4-4.527-.49a.878.878,0,0,0-1.383.589c-.191,1.427.093,3.654,2.021,4.414a3.433,3.433,0,0,0,1.108.221Z" transform="translate(-42.577 -5.506)" fill="#24285b"/>
    <path id="Path_416" data-name="Path 416" d="M157.65,70.05s0-1.4,1.059-1.3,1.054,2.119-.373,2.325Z" transform="translate(-48.999 -12.783)" fill="#f4a28c"/>
    <path id="Path_417" data-name="Path 417" d="M148.459,69.84l-.981,1.412a.584.584,0,0,0,.373.912l1.393.24Z" transform="translate(-43.761 -13.343)" fill="#f4a28c"/>
    <path id="Path_418" data-name="Path 418" d="M171.26,117.181l12.5-3.168s-12.653-5.213-9.588-14.6S194.35,116.73,194.35,116.73l-21.9,3.894Z" transform="translate(-55.934 -27.392)" fill="#68e1fd"/>
    <path id="Path_419" data-name="Path 419" d="M171.26,117.181l12.5-3.168s-12.653-5.213-9.588-14.6S194.35,116.73,194.35,116.73l-21.9,3.894Z" transform="translate(-55.934 -27.392)" opacity="0.08"/>
    <path id="Path_420" data-name="Path 420" d="M218.694,146.731s1.265,11.771-13.217,10.863c-7.445-.461-16.057-.569-22.673-.564a9.044,9.044,0,0,0-8.9,10.608l1.236,7.072-4.8,1.079-1.834-7.68a17.376,17.376,0,0,1,11.928-20.648l9.083-2.722Z" transform="translate(-54.294 -51.509)" fill="#24285b"/>
    <path id="Path_421" data-name="Path 421" d="M176.156,150.445s-11.55,2.658-11.006,15.831l2.452,12.173,3.207-.6s-3.34-23.389,8.882-26.513V149.91Z" transform="translate(-52.812 -54.143)" fill="#24285b"/>
    <path id="Path_422" data-name="Path 422" d="M166.559,82.985l5.478-7.98s5.665-2.854,17.8-1.771,29.51,10.5,27.705,36.935l-26.023.633s5.807-8.215-5.032-8.754S162.41,98.3,166.559,82.985Z" transform="translate(-53.141 -14.947)" fill="#68e1fd"/>
    <path id="Path_423" data-name="Path 423" d="M212.22,95.67s18.794,2.884,19.48,26.288l-18.607.809,2.786-9.161Z" transform="translate(-76.806 -26.505)" opacity="0.08"/>
    <path id="Path_424" data-name="Path 424" d="M183.008,68s-15.38.981-15.478,12.1,8.465,16.44,17.165,18.421c10.662,2.428,21.432-3.335,24.223-15.071L204.8,79.56S202.346,91.512,191.213,90.7,162.169,76.5,186.8,71.722Z" transform="translate(-54.033 -12.405)" fill="#24285b"/>
    <path id="Path_425" data-name="Path 425" d="M182.887,84.806a6.229,6.229,0,0,0-7.965,7.994l.078.206c2.717,6.974,16.93,15.483,16.93,15.483l-19.191,3.257.9,4.414s20.285,3.894,27.705-2.173C208.179,108.44,198.645,90.5,182.887,84.806Z" transform="translate(-56.688 -20.78)" fill="#68e1fd"/>
    <path id="Path_426" data-name="Path 426" d="M182.887,84.806a6.229,6.229,0,0,0-7.965,7.994l.078.206c2.717,6.974,16.93,15.483,16.93,15.483l-19.191,3.257.9,4.414s20.285,3.894,27.705-2.173C208.179,108.44,198.645,90.5,182.887,84.806Z" transform="translate(-56.688 -20.78)" fill="#fff" opacity="0.46"/>
    <path id="Path_427" data-name="Path 427" d="M204.18,212.035h17.95l12.712-12.791-3.619-5.954-24.63,8.784Z" transform="translate(-72.709 -76.248)" fill="#24285b"/>
    <path id="Path_428" data-name="Path 428" d="M194.393,60.634s-1.5-9.127,5.979-11.982c7.008-2.688,27.053.888,33.12,19.093a5.179,5.179,0,0,1-1.756,5.709l-2.1,1.638a6.557,6.557,0,0,1-9.235-1.148C216.37,68.677,208.385,61.517,194.393,60.634Z" transform="translate(-67.659 -2.141)" fill="#24285b"/>
    <path id="Path_429" data-name="Path 429" d="M135.944,132.309l-2.236.3a3.664,3.664,0,0,0-3.124,4.2l.27,1.731a3.83,3.83,0,0,0,3.781,3.232h.128s-12.55,10.809-14.272,18.794l14.007,16.96a9.392,9.392,0,0,0,7.244,3.433h19.794s5.493-13.674,29.485-14.757c0,0,2.452-6.341-4.164-11.952l-25.322,1.717-5.557,3.713.7,4.841a7.18,7.18,0,0,1-4.723,7.808h0a9.779,9.779,0,0,1-10.912-3.154c-3.781-4.762-7.224-12.752-1.623-23.345,0,0,7.033-9.99.294-13A6.935,6.935,0,0,0,135.944,132.309Z" transform="translate(-30.064 -45.139)" fill="#ffd200"/>
    <path id="Path_430" data-name="Path 430" d="M142.067,133.47l1.78,8.931h-4l-1.27-7.749Z" transform="translate(-39.282 -45.766)" fill="#ffd200"/>
    <path id="Path_431" data-name="Path 431" d="M142.067,133.47l1.78,8.931h-4l-1.27-7.749Z" transform="translate(-39.282 -45.766)" fill="#fff" opacity="0.51"/>
    <path id="Path_432" data-name="Path 432" d="M166.407,141s-5.522-2.158-6.067,0,6.866,3.129,6.866,3.129Z" transform="translate(-50.355 -49.116)" fill="#f4a28c"/>
    <circle id="Ellipse_56" data-name="Ellipse 56" cx="2.094" cy="2.094" r="2.094" transform="translate(107.861 91.667)" fill="#ffd200"/>
    <circle id="Ellipse_57" data-name="Ellipse 57" cx="11.261" cy="11.261" r="11.261" transform="translate(77.572 120.554)" fill="#24285b"/>
    <circle id="Ellipse_58" data-name="Ellipse 58" cx="7.533" cy="7.533" r="7.533" transform="translate(81.299 124.281)" fill="#fff"/>
    <path id="Path_433" data-name="Path 433" d="M108.649,223.088a8.269,8.269,0,1,1,8.269-8.269A8.269,8.269,0,0,1,108.649,223.088Zm0-15.066a6.8,6.8,0,1,0,6.8,6.8,6.8,6.8,0,0,0-6.8-6.8Z" transform="translate(-19.817 -83.004)" fill="#68e1fd"/>
    <path id="Path_434" data-name="Path 434" d="M221.831,209.776s-4.414,5.434-5.341,9.779h10.3l3.35-5.979-3.173-5.527Z" transform="translate(-78.981 -83.769)" fill="#fff" opacity="0.11"/>
    <circle id="Ellipse_59" data-name="Ellipse 59" cx="11.261" cy="11.261" r="11.261" transform="translate(145.738 120.554)" fill="#24285b"/>
    <circle id="Ellipse_60" data-name="Ellipse 60" cx="7.533" cy="7.533" r="7.533" transform="translate(149.466 124.281)" fill="#fff"/>
    <path id="Path_435" data-name="Path 435" d="M247.634,223.088a8.269,8.269,0,1,1,8.274-8.27A8.269,8.269,0,0,1,247.634,223.088Zm0-15.066a6.8,6.8,0,1,0,6.8,6.8,6.8,6.8,0,0,0-6.8-6.8Z" transform="translate(-90.64 -83.004)" fill="#68e1fd"/>
    <circle id="Ellipse_61" data-name="Ellipse 61" cx="2.094" cy="2.094" r="2.094" transform="translate(107.861 91.667)" opacity="0.08"/>
    <path id="Path_436" data-name="Path 436" d="M110.169,190s-6.42.76-9.735,6.14a1.295,1.295,0,0,0,1.334,1.962c3.865-.672,11.726-.652,20.927,7.077Z" transform="translate(-19.743 -74.571)" fill="#ffd200"/>
    <path id="Path_437" data-name="Path 437" d="M110.169,190s-6.42.76-9.735,6.14a1.295,1.295,0,0,0,1.334,1.962c3.865-.672,11.726-.652,20.927,7.077Z" transform="translate(-19.743 -74.571)" opacity="0.08"/>
    <path id="Path_438" data-name="Path 438" d="M189.626,175.124s-5.714-4.571-3.261-8.509,13.987.27,22.953-2.717,17.337-.633,11.182,5.8Z" transform="translate(-63.319 -60.618)" fill="#ffd200"/>
    <path id="Path_439" data-name="Path 439" d="M189.626,175.124s-5.714-4.571-3.261-8.509,13.987.27,22.953-2.717,17.337-.633,11.182,5.8Z" transform="translate(-63.319 -60.618)" opacity="0.17"/>
    <ellipse id="Ellipse_62" data-name="Ellipse 62" cx="1.972" cy="3.737" rx="1.972" ry="3.737" transform="matrix(0.151, -0.989, 0.989, 0.151, 137.07, 47.553)" fill="#ffd200"/>
    <path id="Path_440" data-name="Path 440" d="M212.963,201.535s-6.209-6.1,0-10.79c5.562-4.218,18.294-6.837,26.317-1.216a2.2,2.2,0,0,1-.353,3.772C233.571,195.856,221.953,200.946,212.963,201.535Z" transform="translate(-75.778 -72.693)" fill="#ffd200"/>
    <path id="Path_441" data-name="Path 441" d="M212.963,201.535s-6.209-6.1,0-10.79c5.562-4.218,18.294-6.837,26.317-1.216a2.2,2.2,0,0,1-.353,3.772C233.571,195.856,221.953,200.946,212.963,201.535Z" transform="translate(-75.778 -72.693)" opacity="0.08"/>
    <path id="Path_442" data-name="Path 442" d="M268.182,197.22a20.167,20.167,0,0,0,5,5.449.741.741,0,0,1-.657,1.3,15.611,15.611,0,0,1-7.317-4.492Z" transform="translate(-103.807 -78.25)" fill="#ffd200"/>
    <path id="Path_443" data-name="Path 443" d="M144.747,50.756a4.149,4.149,0,0,0-1.82,2.879c-.181,1.314-.093,2.943,1.28,3.561a10.9,10.9,0,0,0,5.341.647s-.245,4.718,3.149,4.512,4.007-5.768,2.913-8.622C154.6,51.079,150.666,46.827,144.747,50.756Z" transform="translate(-41.461 -2.807)" fill="#68e1fd"/>
    <path id="Path_444" data-name="Path 444" d="M140.013,63.2s-4.875,2.776-2.7,3.595,9.142-1.8,9.142-1.8S140.954,65.579,140.013,63.2Z" transform="translate(-38.351 -9.959)" fill="#24285b"/>
    <path id="Path_445" data-name="Path 445" d="M173.921,206.478a2.863,2.863,0,0,1-1.584,2.359c-1.452.544-1.432,2.109,0,2.114s4.414-2.693,4.414-2.693l-.7-2.119Z" transform="translate(-55.932 -82.795)" fill="#68e1fd"/>
    <circle id="Ellipse_63" data-name="Ellipse 63" cx="1.991" cy="1.991" r="1.991" transform="translate(108.651 52.652)" fill="#fff" opacity="0.46"/>
    <path id="Path_446" data-name="Path 446" d="M133.924,175.556a1.378,1.378,0,0,0-2.477-.951c-2.026,2.693-3.845,5.934-2.776,7.881,2.084,3.8,4.605,4.537,5.493,1.962C134.787,182.628,133.576,179.607,133.924,175.556Z" transform="translate(-34.071 -66.444)" fill="#fff" opacity="0.17"/>
  </g>
</svg>
